<svg xmlns="http://www.w3.org/2000/svg" xmlns:xlink="http://www.w3.org/1999/xlink" width="1080" zoomAndPan="magnify" viewBox="0 0 810 262.499992" height="350" preserveAspectRatio="xMidYMid meet" version="1.0"><defs><filter x="0%" y="0%" width="100%" height="100%" id="040eb2cf90"><feColorMatrix values="0 0 0 0 1 0 0 0 0 1 0 0 0 0 1 0 0 0 1 0" color-interpolation-filters="sRGB"/></filter><g/><clipPath id="5a62a1f2c6"><path d="M 0.769531 0 L 809.230469 0 L 809.230469 262 L 0.769531 262 Z M 0.769531 0 " clip-rule="nonzero"/></clipPath><clipPath id="60aacb6c3a"><path d="M 0.769531 0 L 809.230469 0 L 809.230469 262 L 0.769531 262 Z M 0.769531 0 " clip-rule="nonzero"/></clipPath><clipPath id="34a9a791dd"><path d="M 0.769531 0 L 809.230469 0 L 809.230469 262 L 0.769531 262 Z M 0.769531 0 " clip-rule="nonzero"/></clipPath><linearGradient x1="66.478518" gradientTransform="matrix(0.748673, 0, 0, 0.748712, -49.000672, 22.811655)" y1="215" x2="1146.336391" gradientUnits="userSpaceOnUse" y2="215" id="bebbb6cf4e"><stop stop-opacity="1" stop-color="rgb(0%, 65.098572%, 100%)" offset="0"/><stop stop-opacity="1" stop-color="rgb(0%, 65.098572%, 100%)" offset="0.03125"/><stop stop-opacity="1" stop-color="rgb(0%, 65.016174%, 99.879456%)" offset="0.0390625"/><stop stop-opacity="1" stop-color="rgb(0.00305176%, 64.794922%, 99.557495%)" offset="0.0429687"/><stop stop-opacity="1" stop-color="rgb(0.00457764%, 64.656067%, 99.356079%)" offset="0.046875"/><stop stop-opacity="1" stop-color="rgb(0.00610352%, 64.517212%, 99.154663%)" offset="0.0507812"/><stop stop-opacity="1" stop-color="rgb(0.00762939%, 64.378357%, 98.953247%)" offset="0.0546875"/><stop stop-opacity="1" stop-color="rgb(0.00915527%, 64.237976%, 98.750305%)" offset="0.0585937"/><stop stop-opacity="1" stop-color="rgb(0.0106812%, 64.099121%, 98.548889%)" offset="0.0625"/><stop stop-opacity="1" stop-color="rgb(0.012207%, 63.960266%, 98.345947%)" offset="0.0664062"/><stop stop-opacity="1" stop-color="rgb(0.0152588%, 63.821411%, 98.144531%)" offset="0.0703125"/><stop stop-opacity="1" stop-color="rgb(0.0167847%, 63.68103%, 97.941589%)" offset="0.0742188"/><stop stop-opacity="1" stop-color="rgb(0.0183105%, 63.542175%, 97.740173%)" offset="0.078125"/><stop stop-opacity="1" stop-color="rgb(0.0198364%, 63.40332%, 97.537231%)" offset="0.0820312"/><stop stop-opacity="1" stop-color="rgb(0.0213623%, 63.264465%, 97.335815%)" offset="0.0859375"/><stop stop-opacity="1" stop-color="rgb(0.0228882%, 63.124084%, 97.132874%)" offset="0.0898438"/><stop stop-opacity="1" stop-color="rgb(0.0244141%, 62.985229%, 96.931458%)" offset="0.09375"/><stop stop-opacity="1" stop-color="rgb(0.0259399%, 62.844849%, 96.728516%)" offset="0.0976562"/><stop stop-opacity="1" stop-color="rgb(0.0289917%, 62.705994%, 96.5271%)" offset="0.101562"/><stop stop-opacity="1" stop-color="rgb(0.0305176%, 62.567139%, 96.324158%)" offset="0.105469"/><stop stop-opacity="1" stop-color="rgb(0.0320435%, 62.428284%, 96.122742%)" offset="0.109375"/><stop stop-opacity="1" stop-color="rgb(0.0335693%, 62.287903%, 95.9198%)" offset="0.113281"/><stop stop-opacity="1" stop-color="rgb(0.0350952%, 62.149048%, 95.718384%)" offset="0.117187"/><stop stop-opacity="1" stop-color="rgb(0.0366211%, 62.010193%, 95.515442%)" offset="0.121094"/><stop stop-opacity="1" stop-color="rgb(0.038147%, 61.871338%, 95.314026%)" offset="0.125"/><stop stop-opacity="1" stop-color="rgb(0.0396729%, 61.730957%, 95.111084%)" offset="0.128906"/><stop stop-opacity="1" stop-color="rgb(0.0411987%, 61.592102%, 94.909668%)" offset="0.132812"/><stop stop-opacity="1" stop-color="rgb(0.0427246%, 61.453247%, 94.706726%)" offset="0.136719"/><stop stop-opacity="1" stop-color="rgb(0.0457764%, 61.314392%, 94.50531%)" offset="0.140625"/><stop stop-opacity="1" stop-color="rgb(0.0473022%, 61.174011%, 94.302368%)" offset="0.144531"/><stop stop-opacity="1" stop-color="rgb(0.0488281%, 61.035156%, 94.100952%)" offset="0.148438"/><stop stop-opacity="1" stop-color="rgb(0.050354%, 60.896301%, 93.899536%)" offset="0.152344"/><stop stop-opacity="1" stop-color="rgb(0.0518799%, 60.757446%, 93.69812%)" offset="0.15625"/><stop stop-opacity="1" stop-color="rgb(0.0534058%, 60.617065%, 93.495178%)" offset="0.160156"/><stop stop-opacity="1" stop-color="rgb(0.0549316%, 60.47821%, 93.293762%)" offset="0.164062"/><stop stop-opacity="1" stop-color="rgb(0.0564575%, 60.33783%, 93.09082%)" offset="0.167969"/><stop stop-opacity="1" stop-color="rgb(0.0579834%, 60.198975%, 92.889404%)" offset="0.171875"/><stop stop-opacity="1" stop-color="rgb(0.0595093%, 60.06012%, 92.686462%)" offset="0.175781"/><stop stop-opacity="1" stop-color="rgb(0.062561%, 59.921265%, 92.485046%)" offset="0.179688"/><stop stop-opacity="1" stop-color="rgb(0.0640869%, 59.780884%, 92.282104%)" offset="0.183594"/><stop stop-opacity="1" stop-color="rgb(0.0656128%, 59.642029%, 92.080688%)" offset="0.1875"/><stop stop-opacity="1" stop-color="rgb(0.0671387%, 59.503174%, 91.877747%)" offset="0.191406"/><stop stop-opacity="1" stop-color="rgb(0.0686646%, 59.364319%, 91.676331%)" offset="0.195312"/><stop stop-opacity="1" stop-color="rgb(0.0701904%, 59.223938%, 91.473389%)" offset="0.199219"/><stop stop-opacity="1" stop-color="rgb(0.0717163%, 59.085083%, 91.271973%)" offset="0.203125"/><stop stop-opacity="1" stop-color="rgb(0.0732422%, 58.946228%, 91.069031%)" offset="0.207031"/><stop stop-opacity="1" stop-color="rgb(0.0762939%, 58.807373%, 90.867615%)" offset="0.210938"/><stop stop-opacity="1" stop-color="rgb(0.0778198%, 58.666992%, 90.664673%)" offset="0.214844"/><stop stop-opacity="1" stop-color="rgb(0.0793457%, 58.528137%, 90.463257%)" offset="0.21875"/><stop stop-opacity="1" stop-color="rgb(0.0808716%, 58.389282%, 90.260315%)" offset="0.222656"/><stop stop-opacity="1" stop-color="rgb(0.0823975%, 58.250427%, 90.058899%)" offset="0.226562"/><stop stop-opacity="1" stop-color="rgb(0.0839233%, 58.110046%, 89.855957%)" offset="0.230469"/><stop stop-opacity="1" stop-color="rgb(0.0854492%, 57.971191%, 89.654541%)" offset="0.234375"/><stop stop-opacity="1" stop-color="rgb(0.0869751%, 57.830811%, 89.451599%)" offset="0.238281"/><stop stop-opacity="1" stop-color="rgb(0.088501%, 57.691956%, 89.250183%)" offset="0.242187"/><stop stop-opacity="1" stop-color="rgb(0.0900269%, 57.553101%, 89.048767%)" offset="0.246094"/><stop stop-opacity="1" stop-color="rgb(0.0930786%, 57.414246%, 88.847351%)" offset="0.25"/><stop stop-opacity="1" stop-color="rgb(0.0946045%, 57.273865%, 88.644409%)" offset="0.253906"/><stop stop-opacity="1" stop-color="rgb(0.0961304%, 57.13501%, 88.442993%)" offset="0.257812"/><stop stop-opacity="1" stop-color="rgb(0.0976562%, 56.996155%, 88.240051%)" offset="0.261719"/><stop stop-opacity="1" stop-color="rgb(0.0991821%, 56.8573%, 88.038635%)" offset="0.265625"/><stop stop-opacity="1" stop-color="rgb(0.100708%, 56.716919%, 87.835693%)" offset="0.269531"/><stop stop-opacity="1" stop-color="rgb(0.102234%, 56.578064%, 87.634277%)" offset="0.273437"/><stop stop-opacity="1" stop-color="rgb(0.10376%, 56.439209%, 87.431335%)" offset="0.277344"/><stop stop-opacity="1" stop-color="rgb(0.105286%, 56.300354%, 87.229919%)" offset="0.28125"/><stop stop-opacity="1" stop-color="rgb(0.106812%, 56.159973%, 87.026978%)" offset="0.285156"/><stop stop-opacity="1" stop-color="rgb(0.109863%, 56.021118%, 86.825562%)" offset="0.289062"/><stop stop-opacity="1" stop-color="rgb(0.111389%, 55.882263%, 86.62262%)" offset="0.292969"/><stop stop-opacity="1" stop-color="rgb(0.112915%, 55.743408%, 86.421204%)" offset="0.296875"/><stop stop-opacity="1" stop-color="rgb(0.114441%, 55.603027%, 86.218262%)" offset="0.300781"/><stop stop-opacity="1" stop-color="rgb(0.115967%, 55.464172%, 86.016846%)" offset="0.304687"/><stop stop-opacity="1" stop-color="rgb(0.117493%, 55.323792%, 85.813904%)" offset="0.308594"/><stop stop-opacity="1" stop-color="rgb(0.119019%, 55.184937%, 85.612488%)" offset="0.3125"/><stop stop-opacity="1" stop-color="rgb(0.120544%, 55.046082%, 85.409546%)" offset="0.316406"/><stop stop-opacity="1" stop-color="rgb(0.123596%, 54.907227%, 85.20813%)" offset="0.320312"/><stop stop-opacity="1" stop-color="rgb(0.125122%, 54.766846%, 85.005188%)" offset="0.324219"/><stop stop-opacity="1" stop-color="rgb(0.126648%, 54.627991%, 84.803772%)" offset="0.328125"/><stop stop-opacity="1" stop-color="rgb(0.128174%, 54.489136%, 84.60083%)" offset="0.332031"/><stop stop-opacity="1" stop-color="rgb(0.1297%, 54.350281%, 84.399414%)" offset="0.335938"/><stop stop-opacity="1" stop-color="rgb(0.131226%, 54.2099%, 84.196472%)" offset="0.339844"/><stop stop-opacity="1" stop-color="rgb(0.132751%, 54.071045%, 83.995056%)" offset="0.34375"/><stop stop-opacity="1" stop-color="rgb(0.134277%, 53.93219%, 83.79364%)" offset="0.347656"/><stop stop-opacity="1" stop-color="rgb(0.135803%, 53.793335%, 83.592224%)" offset="0.351562"/><stop stop-opacity="1" stop-color="rgb(0.137329%, 53.652954%, 83.389282%)" offset="0.355469"/><stop stop-opacity="1" stop-color="rgb(0.140381%, 53.514099%, 83.187866%)" offset="0.359375"/><stop stop-opacity="1" stop-color="rgb(0.141907%, 53.375244%, 82.984924%)" offset="0.363281"/><stop stop-opacity="1" stop-color="rgb(0.143433%, 53.236389%, 82.783508%)" offset="0.367187"/><stop stop-opacity="1" stop-color="rgb(0.144958%, 53.096008%, 82.580566%)" offset="0.371094"/><stop stop-opacity="1" stop-color="rgb(0.146484%, 52.957153%, 82.37915%)" offset="0.375"/><stop stop-opacity="1" stop-color="rgb(0.14801%, 52.816772%, 82.176208%)" offset="0.378906"/><stop stop-opacity="1" stop-color="rgb(0.149536%, 52.677917%, 81.974792%)" offset="0.382812"/><stop stop-opacity="1" stop-color="rgb(0.151062%, 52.539062%, 81.771851%)" offset="0.386719"/><stop stop-opacity="1" stop-color="rgb(0.152588%, 52.400208%, 81.570435%)" offset="0.390625"/><stop stop-opacity="1" stop-color="rgb(0.154114%, 52.259827%, 81.367493%)" offset="0.394531"/><stop stop-opacity="1" stop-color="rgb(0.157166%, 52.120972%, 81.166077%)" offset="0.398438"/><stop stop-opacity="1" stop-color="rgb(0.158691%, 51.982117%, 80.963135%)" offset="0.402344"/><stop stop-opacity="1" stop-color="rgb(0.160217%, 51.843262%, 80.761719%)" offset="0.40625"/><stop stop-opacity="1" stop-color="rgb(0.161743%, 51.702881%, 80.558777%)" offset="0.410156"/><stop stop-opacity="1" stop-color="rgb(0.163269%, 51.564026%, 80.357361%)" offset="0.414062"/><stop stop-opacity="1" stop-color="rgb(0.164795%, 51.425171%, 80.154419%)" offset="0.417969"/><stop stop-opacity="1" stop-color="rgb(0.166321%, 51.286316%, 79.953003%)" offset="0.421875"/><stop stop-opacity="1" stop-color="rgb(0.167847%, 51.145935%, 79.750061%)" offset="0.425781"/><stop stop-opacity="1" stop-color="rgb(0.169373%, 51.00708%, 79.548645%)" offset="0.429687"/><stop stop-opacity="1" stop-color="rgb(0.170898%, 50.868225%, 79.345703%)" offset="0.433594"/><stop stop-opacity="1" stop-color="rgb(0.17395%, 50.72937%, 79.144287%)" offset="0.4375"/><stop stop-opacity="1" stop-color="rgb(0.175476%, 50.588989%, 78.941345%)" offset="0.441406"/><stop stop-opacity="1" stop-color="rgb(0.177002%, 50.450134%, 78.739929%)" offset="0.445312"/><stop stop-opacity="1" stop-color="rgb(0.178528%, 50.309753%, 78.538513%)" offset="0.449219"/><stop stop-opacity="1" stop-color="rgb(0.180054%, 50.170898%, 78.337097%)" offset="0.453125"/><stop stop-opacity="1" stop-color="rgb(0.18158%, 50.032043%, 78.134155%)" offset="0.457031"/><stop stop-opacity="1" stop-color="rgb(0.183105%, 49.893188%, 77.932739%)" offset="0.460937"/><stop stop-opacity="1" stop-color="rgb(0.184631%, 49.752808%, 77.729797%)" offset="0.464844"/><stop stop-opacity="1" stop-color="rgb(0.187683%, 49.613953%, 77.528381%)" offset="0.46875"/><stop stop-opacity="1" stop-color="rgb(0.189209%, 49.475098%, 77.325439%)" offset="0.472656"/><stop stop-opacity="1" stop-color="rgb(0.190735%, 49.336243%, 77.124023%)" offset="0.476562"/><stop stop-opacity="1" stop-color="rgb(0.192261%, 49.195862%, 76.921082%)" offset="0.480469"/><stop stop-opacity="1" stop-color="rgb(0.193787%, 49.057007%, 76.719666%)" offset="0.484375"/><stop stop-opacity="1" stop-color="rgb(0.195312%, 48.918152%, 76.516724%)" offset="0.488281"/><stop stop-opacity="1" stop-color="rgb(0.196838%, 48.779297%, 76.315308%)" offset="0.492187"/><stop stop-opacity="1" stop-color="rgb(0.198364%, 48.638916%, 76.112366%)" offset="0.496094"/><stop stop-opacity="1" stop-color="rgb(0.19989%, 48.500061%, 75.91095%)" offset="0.5"/><stop stop-opacity="1" stop-color="rgb(0.201416%, 48.361206%, 75.708008%)" offset="0.503906"/><stop stop-opacity="1" stop-color="rgb(0.204468%, 48.222351%, 75.506592%)" offset="0.507812"/><stop stop-opacity="1" stop-color="rgb(0.205994%, 48.08197%, 75.30365%)" offset="0.511719"/><stop stop-opacity="1" stop-color="rgb(0.20752%, 47.943115%, 75.102234%)" offset="0.515625"/><stop stop-opacity="1" stop-color="rgb(0.209045%, 47.802734%, 74.899292%)" offset="0.519531"/><stop stop-opacity="1" stop-color="rgb(0.210571%, 47.663879%, 74.697876%)" offset="0.523438"/><stop stop-opacity="1" stop-color="rgb(0.212097%, 47.525024%, 74.494934%)" offset="0.527344"/><stop stop-opacity="1" stop-color="rgb(0.213623%, 47.386169%, 74.293518%)" offset="0.53125"/><stop stop-opacity="1" stop-color="rgb(0.215149%, 47.245789%, 74.090576%)" offset="0.535156"/><stop stop-opacity="1" stop-color="rgb(0.216675%, 47.106934%, 73.88916%)" offset="0.539062"/><stop stop-opacity="1" stop-color="rgb(0.218201%, 46.968079%, 73.687744%)" offset="0.542969"/><stop stop-opacity="1" stop-color="rgb(0.221252%, 46.829224%, 73.486328%)" offset="0.546875"/><stop stop-opacity="1" stop-color="rgb(0.222778%, 46.688843%, 73.283386%)" offset="0.550781"/><stop stop-opacity="1" stop-color="rgb(0.224304%, 46.549988%, 73.08197%)" offset="0.554687"/><stop stop-opacity="1" stop-color="rgb(0.22583%, 46.411133%, 72.879028%)" offset="0.558594"/><stop stop-opacity="1" stop-color="rgb(0.227356%, 46.272278%, 72.677612%)" offset="0.5625"/><stop stop-opacity="1" stop-color="rgb(0.228882%, 46.131897%, 72.47467%)" offset="0.566406"/><stop stop-opacity="1" stop-color="rgb(0.230408%, 45.993042%, 72.273254%)" offset="0.570312"/><stop stop-opacity="1" stop-color="rgb(0.231934%, 45.854187%, 72.070312%)" offset="0.574219"/><stop stop-opacity="1" stop-color="rgb(0.234985%, 45.715332%, 71.868896%)" offset="0.578125"/><stop stop-opacity="1" stop-color="rgb(0.236511%, 45.574951%, 71.665955%)" offset="0.582031"/><stop stop-opacity="1" stop-color="rgb(0.238037%, 45.436096%, 71.464539%)" offset="0.585937"/><stop stop-opacity="1" stop-color="rgb(0.239563%, 45.295715%, 71.261597%)" offset="0.589844"/><stop stop-opacity="1" stop-color="rgb(0.241089%, 45.15686%, 71.060181%)" offset="0.59375"/><stop stop-opacity="1" stop-color="rgb(0.242615%, 45.018005%, 70.857239%)" offset="0.597656"/><stop stop-opacity="1" stop-color="rgb(0.244141%, 44.87915%, 70.655823%)" offset="0.601562"/><stop stop-opacity="1" stop-color="rgb(0.245667%, 44.73877%, 70.452881%)" offset="0.605469"/><stop stop-opacity="1" stop-color="rgb(0.247192%, 44.599915%, 70.251465%)" offset="0.609375"/><stop stop-opacity="1" stop-color="rgb(0.248718%, 44.46106%, 70.048523%)" offset="0.613281"/><stop stop-opacity="1" stop-color="rgb(0.25177%, 44.322205%, 69.847107%)" offset="0.617187"/><stop stop-opacity="1" stop-color="rgb(0.253296%, 44.181824%, 69.644165%)" offset="0.621094"/><stop stop-opacity="1" stop-color="rgb(0.254822%, 44.042969%, 69.442749%)" offset="0.625"/><stop stop-opacity="1" stop-color="rgb(0.256348%, 43.904114%, 69.239807%)" offset="0.628906"/><stop stop-opacity="1" stop-color="rgb(0.257874%, 43.765259%, 69.038391%)" offset="0.632812"/><stop stop-opacity="1" stop-color="rgb(0.259399%, 43.624878%, 68.835449%)" offset="0.636719"/><stop stop-opacity="1" stop-color="rgb(0.260925%, 43.486023%, 68.634033%)" offset="0.640625"/><stop stop-opacity="1" stop-color="rgb(0.262451%, 43.347168%, 68.432617%)" offset="0.644531"/><stop stop-opacity="1" stop-color="rgb(0.263977%, 43.208313%, 68.231201%)" offset="0.648437"/><stop stop-opacity="1" stop-color="rgb(0.265503%, 43.067932%, 68.028259%)" offset="0.652344"/><stop stop-opacity="1" stop-color="rgb(0.268555%, 42.929077%, 67.826843%)" offset="0.65625"/><stop stop-opacity="1" stop-color="rgb(0.270081%, 42.788696%, 67.623901%)" offset="0.660156"/><stop stop-opacity="1" stop-color="rgb(0.271606%, 42.649841%, 67.422485%)" offset="0.664062"/><stop stop-opacity="1" stop-color="rgb(0.273132%, 42.510986%, 67.219543%)" offset="0.667969"/><stop stop-opacity="1" stop-color="rgb(0.274658%, 42.372131%, 67.018127%)" offset="0.671875"/><stop stop-opacity="1" stop-color="rgb(0.276184%, 42.23175%, 66.815186%)" offset="0.675781"/><stop stop-opacity="1" stop-color="rgb(0.27771%, 42.092896%, 66.61377%)" offset="0.679687"/><stop stop-opacity="1" stop-color="rgb(0.279236%, 41.954041%, 66.410828%)" offset="0.683594"/><stop stop-opacity="1" stop-color="rgb(0.282288%, 41.815186%, 66.209412%)" offset="0.6875"/><stop stop-opacity="1" stop-color="rgb(0.283813%, 41.674805%, 66.00647%)" offset="0.691406"/><stop stop-opacity="1" stop-color="rgb(0.285339%, 41.53595%, 65.805054%)" offset="0.695312"/><stop stop-opacity="1" stop-color="rgb(0.286865%, 41.397095%, 65.602112%)" offset="0.699219"/><stop stop-opacity="1" stop-color="rgb(0.288391%, 41.25824%, 65.400696%)" offset="0.703125"/><stop stop-opacity="1" stop-color="rgb(0.289917%, 41.117859%, 65.197754%)" offset="0.707031"/><stop stop-opacity="1" stop-color="rgb(0.291443%, 40.979004%, 64.996338%)" offset="0.710937"/><stop stop-opacity="1" stop-color="rgb(0.292969%, 40.840149%, 64.793396%)" offset="0.714844"/><stop stop-opacity="1" stop-color="rgb(0.294495%, 40.701294%, 64.59198%)" offset="0.71875"/><stop stop-opacity="1" stop-color="rgb(0.296021%, 40.560913%, 64.389038%)" offset="0.722656"/><stop stop-opacity="1" stop-color="rgb(0.299072%, 40.422058%, 64.187622%)" offset="0.726562"/><stop stop-opacity="1" stop-color="rgb(0.300598%, 40.281677%, 63.98468%)" offset="0.730469"/><stop stop-opacity="1" stop-color="rgb(0.302124%, 40.142822%, 63.783264%)" offset="0.734375"/><stop stop-opacity="1" stop-color="rgb(0.30365%, 40.003967%, 63.581848%)" offset="0.738281"/><stop stop-opacity="1" stop-color="rgb(0.305176%, 39.865112%, 63.380432%)" offset="0.742187"/><stop stop-opacity="1" stop-color="rgb(0.306702%, 39.724731%, 63.17749%)" offset="0.746094"/><stop stop-opacity="1" stop-color="rgb(0.308228%, 39.585876%, 62.976074%)" offset="0.75"/><stop stop-opacity="1" stop-color="rgb(0.309753%, 39.447021%, 62.773132%)" offset="0.753906"/><stop stop-opacity="1" stop-color="rgb(0.311279%, 39.308167%, 62.571716%)" offset="0.757812"/><stop stop-opacity="1" stop-color="rgb(0.312805%, 39.167786%, 62.368774%)" offset="0.761719"/><stop stop-opacity="1" stop-color="rgb(0.315857%, 39.028931%, 62.167358%)" offset="0.765625"/><stop stop-opacity="1" stop-color="rgb(0.317383%, 38.890076%, 61.964417%)" offset="0.769531"/><stop stop-opacity="1" stop-color="rgb(0.318909%, 38.751221%, 61.763%)" offset="0.773437"/><stop stop-opacity="1" stop-color="rgb(0.320435%, 38.61084%, 61.560059%)" offset="0.777344"/><stop stop-opacity="1" stop-color="rgb(0.32196%, 38.471985%, 61.358643%)" offset="0.78125"/><stop stop-opacity="1" stop-color="rgb(0.323486%, 38.33313%, 61.155701%)" offset="0.785156"/><stop stop-opacity="1" stop-color="rgb(0.325012%, 38.194275%, 60.954285%)" offset="0.789062"/><stop stop-opacity="1" stop-color="rgb(0.326538%, 38.053894%, 60.751343%)" offset="0.792969"/><stop stop-opacity="1" stop-color="rgb(0.32959%, 37.915039%, 60.549927%)" offset="0.796875"/><stop stop-opacity="1" stop-color="rgb(0.331116%, 37.774658%, 60.346985%)" offset="0.800781"/><stop stop-opacity="1" stop-color="rgb(0.332642%, 37.635803%, 60.145569%)" offset="0.804687"/><stop stop-opacity="1" stop-color="rgb(0.334167%, 37.496948%, 59.942627%)" offset="0.808594"/><stop stop-opacity="1" stop-color="rgb(0.335693%, 37.358093%, 59.741211%)" offset="0.8125"/><stop stop-opacity="1" stop-color="rgb(0.337219%, 37.217712%, 59.538269%)" offset="0.816406"/><stop stop-opacity="1" stop-color="rgb(0.338745%, 37.078857%, 59.336853%)" offset="0.820312"/><stop stop-opacity="1" stop-color="rgb(0.340271%, 36.940002%, 59.133911%)" offset="0.824219"/><stop stop-opacity="1" stop-color="rgb(0.341797%, 36.801147%, 58.932495%)" offset="0.828125"/><stop stop-opacity="1" stop-color="rgb(0.343323%, 36.660767%, 58.729553%)" offset="0.832031"/><stop stop-opacity="1" stop-color="rgb(0.346375%, 36.521912%, 58.528137%)" offset="0.835937"/><stop stop-opacity="1" stop-color="rgb(0.3479%, 36.383057%, 58.326721%)" offset="0.839844"/><stop stop-opacity="1" stop-color="rgb(0.349426%, 36.244202%, 58.125305%)" offset="0.84375"/><stop stop-opacity="1" stop-color="rgb(0.350952%, 36.103821%, 57.922363%)" offset="0.847656"/><stop stop-opacity="1" stop-color="rgb(0.352478%, 35.964966%, 57.720947%)" offset="0.851562"/><stop stop-opacity="1" stop-color="rgb(0.354004%, 35.826111%, 57.518005%)" offset="0.855469"/><stop stop-opacity="1" stop-color="rgb(0.35553%, 35.687256%, 57.316589%)" offset="0.859375"/><stop stop-opacity="1" stop-color="rgb(0.357056%, 35.546875%, 57.113647%)" offset="0.863281"/><stop stop-opacity="1" stop-color="rgb(0.358582%, 35.40802%, 56.912231%)" offset="0.867187"/><stop stop-opacity="1" stop-color="rgb(0.360107%, 35.267639%, 56.70929%)" offset="0.871094"/><stop stop-opacity="1" stop-color="rgb(0.363159%, 35.128784%, 56.507874%)" offset="0.875"/><stop stop-opacity="1" stop-color="rgb(0.364685%, 34.989929%, 56.304932%)" offset="0.878906"/><stop stop-opacity="1" stop-color="rgb(0.366211%, 34.851074%, 56.103516%)" offset="0.882812"/><stop stop-opacity="1" stop-color="rgb(0.367737%, 34.710693%, 55.900574%)" offset="0.886719"/><stop stop-opacity="1" stop-color="rgb(0.369263%, 34.571838%, 55.699158%)" offset="0.890625"/><stop stop-opacity="1" stop-color="rgb(0.370789%, 34.432983%, 55.496216%)" offset="0.894531"/><stop stop-opacity="1" stop-color="rgb(0.372314%, 34.294128%, 55.2948%)" offset="0.898437"/><stop stop-opacity="1" stop-color="rgb(0.37384%, 34.153748%, 55.091858%)" offset="0.902344"/><stop stop-opacity="1" stop-color="rgb(0.376892%, 34.014893%, 54.890442%)" offset="0.90625"/><stop stop-opacity="1" stop-color="rgb(0.378418%, 33.876038%, 54.6875%)" offset="0.910156"/><stop stop-opacity="1" stop-color="rgb(0.379944%, 33.737183%, 54.486084%)" offset="0.914063"/><stop stop-opacity="1" stop-color="rgb(0.38147%, 33.596802%, 54.283142%)" offset="0.917969"/><stop stop-opacity="1" stop-color="rgb(0.382996%, 33.457947%, 54.081726%)" offset="0.921875"/><stop stop-opacity="1" stop-color="rgb(0.384521%, 33.319092%, 53.878784%)" offset="0.925781"/><stop stop-opacity="1" stop-color="rgb(0.386047%, 33.180237%, 53.677368%)" offset="0.929688"/><stop stop-opacity="1" stop-color="rgb(0.387573%, 33.059692%, 53.503418%)" offset="0.9375"/><stop stop-opacity="1" stop-color="rgb(0.389099%, 32.939148%, 53.329468%)" offset="1"/></linearGradient><clipPath id="05770b3548"><rect x="0" width="810" y="0" height="262"/></clipPath><clipPath id="c7a2c92c62"><path d="M 0.769531 0 L 809.230469 0 L 809.230469 262 L 0.769531 262 Z M 0.769531 0 " clip-rule="nonzero"/></clipPath><clipPath id="f0f4a9c129"><rect x="0" width="810" y="0" height="262"/></clipPath><clipPath id="aaaad44d01"><rect x="0" width="810" y="0" height="262"/></clipPath><mask id="e899df4b52"><g filter="url(#040eb2cf90)"><g transform="matrix(1, 0, 0, 1, 0.000000000000000111, 0)"><g clip-path="url(#aaaad44d01)"><g clip-path="url(#c7a2c92c62)"><g transform="matrix(1, 0, 0, 1, 0.000000000000000111, 0)"><g clip-path="url(#f0f4a9c129)"><g fill="#000000" fill-opacity="1"><g transform="translate(28.44103, 193.506629)"><g><path d="M 74.34375 -134.375 C 78.957031 -134.375 81.992188 -132.796875 83.453125 -129.640625 C 84.921875 -126.484375 85.65625 -122.90625 85.65625 -118.90625 C 85.8125 -114.894531 85.65625 -110.890625 85.1875 -106.890625 C 84.726562 -102.890625 84.113281 -98.890625 83.34375 -94.890625 C 81.34375 -85.503906 79.109375 -76.113281 76.640625 -66.71875 C 74.179688 -57.332031 71.644531 -47.945312 69.03125 -38.5625 C 67.800781 -33.789062 65.992188 -28.171875 63.609375 -21.703125 C 61.222656 -15.234375 58.375 -8.570312 55.0625 -1.71875 C 51.75 5.125 48.015625 11.46875 43.859375 17.3125 C 39.703125 23.164062 35.125 27.9375 30.125 31.625 C 25.125 35.320312 19.851562 37.171875 14.3125 37.171875 C 12.625 37.171875 10.703125 36.941406 8.546875 36.484375 C 3.304688 34.941406 -0.539062 31.976562 -3 27.59375 C -5.46875 23.207031 -7.082031 18.550781 -7.84375 13.625 C -8.457031 8.851562 -8.609375 4.160156 -8.296875 -0.453125 C -7.992188 -5.078125 -7.304688 -9.695312 -6.234375 -14.3125 C -5.003906 -18.78125 -3.503906 -23.164062 -1.734375 -27.46875 C 0.0351562 -31.78125 2.078125 -35.9375 4.390625 -39.9375 C 5.460938 -41.9375 7.078125 -44.550781 9.234375 -47.78125 C 11.390625 -51.019531 13.8125 -54.289062 16.5 -57.59375 C 19.195312 -60.90625 22.007812 -63.675781 24.9375 -65.90625 C 27.863281 -68.144531 30.554688 -69.265625 33.015625 -69.265625 C 37.328125 -69.265625 39.867188 -66.722656 40.640625 -61.640625 C 40.941406 -60.097656 41.015625 -58.597656 40.859375 -57.140625 C 40.710938 -55.679688 40.484375 -54.179688 40.171875 -52.640625 C 39.554688 -47.867188 38.285156 -42.441406 36.359375 -36.359375 C 34.441406 -30.285156 32.328125 -24.320312 30.015625 -18.46875 C 27.703125 -12.625 25.546875 -7.46875 23.546875 -3 C 23.390625 -2.382812 23.15625 -1.804688 22.84375 -1.265625 C 22.539062 -0.734375 22.238281 -0.152344 21.9375 0.46875 C 21.46875 1.226562 20.773438 1.992188 19.859375 2.765625 C 19.546875 2.921875 19.234375 3.035156 18.921875 3.109375 C 18.617188 3.191406 18.316406 3.234375 18.015625 3.234375 C 16.003906 3.234375 14.847656 1.996094 14.546875 -0.46875 C 14.390625 -1.695312 14.539062 -3.003906 15 -4.390625 C 15.625 -6.390625 16.242188 -8.3125 16.859375 -10.15625 C 17.472656 -12 18.085938 -13.925781 18.703125 -15.9375 C 20.390625 -21.007812 22.078125 -26.082031 23.765625 -31.15625 C 25.460938 -36.238281 27.082031 -41.398438 28.625 -46.640625 C 29.238281 -48.484375 29.816406 -50.328125 30.359375 -52.171875 C 30.898438 -54.023438 31.25 -55.953125 31.40625 -57.953125 C 31.40625 -58.566406 31.476562 -59.101562 31.625 -59.5625 C 31.164062 -59.40625 30.628906 -59.175781 30.015625 -58.875 C 25.398438 -55.175781 21.164062 -50.554688 17.3125 -45.015625 C 13.46875 -39.472656 10.160156 -33.625 7.390625 -27.46875 C 4.617188 -21.3125 2.539062 -15.390625 1.15625 -9.703125 C 0.382812 -5.847656 -0.078125 -1.917969 -0.234375 2.078125 C -0.390625 6.078125 -0.00390625 10.078125 0.921875 14.078125 C 1.234375 15.160156 1.539062 16.160156 1.84375 17.078125 C 2.15625 18.003906 2.460938 18.929688 2.765625 19.859375 C 4.617188 23.859375 7.625 26.085938 11.78125 26.546875 C 13.925781 26.546875 15.65625 26.390625 16.96875 26.078125 C 18.28125 25.773438 19.9375 25.085938 21.9375 24.015625 C 25.78125 21.398438 29.429688 17.742188 32.890625 13.046875 C 36.359375 8.347656 39.515625 3.191406 42.359375 -2.421875 C 45.210938 -8.035156 47.710938 -13.613281 49.859375 -19.15625 C 52.015625 -24.695312 53.710938 -29.546875 54.953125 -33.703125 C 56.335938 -38.472656 57.644531 -43.28125 58.875 -48.125 C 60.101562 -52.976562 61.332031 -57.789062 62.5625 -62.5625 C 63.800781 -67.945312 65.109375 -73.410156 66.484375 -78.953125 C 67.867188 -84.492188 69.179688 -89.957031 70.421875 -95.34375 C 71.335938 -99.195312 72.140625 -103.007812 72.828125 -106.78125 C 73.523438 -110.550781 74.03125 -114.359375 74.34375 -118.203125 C 74.34375 -118.972656 74.34375 -119.664062 74.34375 -120.28125 C 74.34375 -120.894531 74.421875 -121.515625 74.578125 -122.140625 C 74.578125 -122.441406 74.535156 -122.707031 74.453125 -122.9375 C 74.378906 -123.164062 74.34375 -123.4375 74.34375 -123.75 C 74.1875 -123.75 73.992188 -123.75 73.765625 -123.75 C 73.535156 -123.75 73.265625 -123.75 72.953125 -123.75 C 68.796875 -123.132812 64.332031 -121.671875 59.5625 -119.359375 C 54.789062 -117.054688 50.632812 -114.898438 47.09375 -112.890625 C 45.09375 -111.816406 43.050781 -110.664062 40.96875 -109.4375 C 38.894531 -108.207031 36.78125 -106.972656 34.625 -105.734375 C 33.707031 -105.429688 33.171875 -104.894531 33.015625 -104.125 C 32.703125 -103.050781 31.625 -102.515625 29.78125 -102.515625 C 28.707031 -102.515625 27.785156 -102.894531 27.015625 -103.65625 C 25.785156 -104.894531 25.320312 -106.585938 25.625 -108.734375 C 26.082031 -110.742188 27.160156 -112.363281 28.859375 -113.59375 C 35.171875 -117.59375 41.476562 -121.207031 47.78125 -124.4375 C 54.09375 -127.675781 60.710938 -130.523438 67.640625 -132.984375 C 70.109375 -133.753906 72.34375 -134.21875 74.34375 -134.375 Z M 74.34375 -134.375 "/></g></g></g><g fill="#000000" fill-opacity="1"><g transform="translate(107.169343, 193.506629)"><g><path d="M 81.953125 -35.328125 C 83.191406 -33.785156 83.347656 -32.398438 82.421875 -31.171875 C 81.960938 -30.242188 81.347656 -29.394531 80.578125 -28.625 C 78.878906 -27.082031 77.179688 -25.539062 75.484375 -24 C 73.796875 -22.46875 72.109375 -20.929688 70.421875 -19.390625 C 67.953125 -17.234375 65.445312 -15.113281 62.90625 -13.03125 C 60.375 -10.957031 57.796875 -8.847656 55.171875 -6.703125 C 53.328125 -5.160156 51.097656 -3.578125 48.484375 -1.953125 C 45.867188 -0.335938 43.328125 0.46875 40.859375 0.46875 C 37.472656 0.46875 35.085938 -0.722656 33.703125 -3.109375 C 32.316406 -5.503906 31.472656 -8.160156 31.171875 -11.078125 C 31.015625 -12.929688 31.015625 -14.78125 31.171875 -16.625 C 31.328125 -18.46875 31.476562 -20.3125 31.625 -22.15625 C 31.625 -22.3125 31.660156 -22.503906 31.734375 -22.734375 C 31.816406 -22.972656 31.859375 -23.164062 31.859375 -23.3125 C 31.859375 -23.3125 31.859375 -23.347656 31.859375 -23.421875 C 31.859375 -23.503906 31.78125 -23.625 31.625 -23.78125 C 31.476562 -23.625 31.328125 -23.46875 31.171875 -23.3125 C 31.015625 -23.164062 30.78125 -22.9375 30.46875 -22.625 C 28.78125 -20.625 27.007812 -18.660156 25.15625 -16.734375 C 23.3125 -14.816406 21.46875 -12.851562 19.625 -10.84375 C 18.550781 -9.613281 17.359375 -8.421875 16.046875 -7.265625 C 14.734375 -6.117188 13.3125 -5.082031 11.78125 -4.15625 C 10.695312 -3.382812 9.382812 -2.691406 7.84375 -2.078125 C 6.3125 -1.460938 4.851562 -1.15625 3.46875 -1.15625 C 3 -1.15625 2.570312 -1.191406 2.1875 -1.265625 C 1.800781 -1.347656 1.378906 -1.460938 0.921875 -1.609375 C -1.847656 -2.691406 -3.5 -4.5 -4.03125 -7.03125 C -4.570312 -9.570312 -4.84375 -12.078125 -4.84375 -14.546875 C -4.382812 -19.160156 -3.421875 -23.890625 -1.953125 -28.734375 C -0.492188 -33.585938 1.234375 -38.09375 3.234375 -42.25 C 3.535156 -42.5625 3.800781 -42.945312 4.03125 -43.40625 C 4.269531 -43.863281 4.46875 -44.328125 4.625 -44.796875 C 5.539062 -46.023438 6.691406 -46.640625 8.078125 -46.640625 C 8.390625 -46.640625 8.617188 -46.597656 8.765625 -46.515625 C 8.921875 -46.441406 9.078125 -46.40625 9.234375 -46.40625 C 11.078125 -45.789062 12 -44.40625 12 -42.25 C 11.851562 -41.320312 11.738281 -40.4375 11.65625 -39.59375 C 11.582031 -38.75 11.390625 -37.941406 11.078125 -37.171875 C 10.773438 -35.171875 10.351562 -33.285156 9.8125 -31.515625 C 9.269531 -29.742188 8.769531 -27.9375 8.3125 -26.09375 C 7.851562 -24.09375 7.46875 -22.128906 7.15625 -20.203125 C 6.851562 -18.273438 6.625 -16.3125 6.46875 -14.3125 C 6.3125 -14.007812 6.234375 -13.472656 6.234375 -12.703125 C 6.691406 -12.847656 7.226562 -13.078125 7.84375 -13.390625 C 11.082031 -15.390625 14.316406 -17.851562 17.546875 -20.78125 C 20.773438 -23.851562 23.851562 -27.082031 26.78125 -30.46875 C 29.707031 -33.863281 32.632812 -37.253906 35.5625 -40.640625 C 36.476562 -42.023438 37.476562 -43.253906 38.5625 -44.328125 C 39.476562 -46.023438 40.863281 -46.875 42.71875 -46.875 C 43.332031 -46.875 43.789062 -46.796875 44.09375 -46.640625 C 45.789062 -46.023438 46.789062 -44.789062 47.09375 -42.9375 C 47.09375 -41.863281 47.019531 -41.019531 46.875 -40.40625 C 46.5625 -38.40625 46.097656 -36.632812 45.484375 -35.09375 C 44.554688 -32.164062 43.785156 -29.238281 43.171875 -26.3125 C 42.554688 -23.394531 42.09375 -20.394531 41.78125 -17.3125 C 41.78125 -16.394531 41.816406 -15.472656 41.890625 -14.546875 C 41.972656 -13.617188 42.015625 -12.617188 42.015625 -11.546875 C 42.015625 -11.390625 42.050781 -11.15625 42.125 -10.84375 C 42.207031 -10.539062 42.25 -10.234375 42.25 -9.921875 C 43.945312 -10.691406 45.523438 -11.539062 46.984375 -12.46875 C 48.441406 -13.394531 49.941406 -14.394531 51.484375 -15.46875 C 53.796875 -17.3125 56.066406 -19.15625 58.296875 -21 C 60.523438 -22.851562 62.71875 -24.625 64.875 -26.3125 C 66.71875 -27.851562 68.5625 -29.316406 70.40625 -30.703125 C 72.257812 -32.085938 74.109375 -33.550781 75.953125 -35.09375 C 76.265625 -35.40625 76.570312 -35.632812 76.875 -35.78125 C 77.1875 -35.9375 77.5 -36.09375 77.8125 -36.25 C 78.113281 -36.40625 78.570312 -36.484375 79.1875 -36.484375 C 80.269531 -36.484375 81.191406 -36.097656 81.953125 -35.328125 Z M 81.953125 -35.328125 "/></g></g></g><g fill="#000000" fill-opacity="1"><g transform="translate(176.662641, 193.506629)"><g><path d="M 62.34375 -27.25 C 63.875 -27.25 65.101562 -26.476562 66.03125 -24.9375 C 66.800781 -23.394531 66.644531 -22.007812 65.5625 -20.78125 C 65.414062 -20.625 65.222656 -20.429688 64.984375 -20.203125 C 64.753906 -19.972656 64.488281 -19.703125 64.1875 -19.390625 C 62.332031 -18.160156 60.519531 -16.890625 58.75 -15.578125 C 56.988281 -14.273438 55.179688 -12.929688 53.328125 -11.546875 C 49.023438 -8.617188 44.332031 -5.691406 39.25 -2.765625 C 37.707031 -1.992188 36.164062 -1.335938 34.625 -0.796875 C 33.09375 -0.265625 31.476562 0 29.78125 0 C 25.625 -0.3125 23.082031 -2.546875 22.15625 -6.703125 C 22.007812 -7.316406 21.894531 -7.890625 21.8125 -8.421875 C 21.738281 -8.960938 21.703125 -9.539062 21.703125 -10.15625 C 21.546875 -10.3125 21.46875 -10.695312 21.46875 -11.3125 C 21.3125 -11.15625 21.117188 -11 20.890625 -10.84375 C 20.660156 -10.695312 20.46875 -10.546875 20.3125 -10.390625 C 19.082031 -9.460938 17.890625 -8.535156 16.734375 -7.609375 C 15.578125 -6.691406 14.382812 -5.847656 13.15625 -5.078125 C 12.082031 -4.460938 10.851562 -3.804688 9.46875 -3.109375 C 8.082031 -2.421875 6.773438 -2.078125 5.546875 -2.078125 C 1.535156 -2.078125 -0.925781 -4.234375 -1.84375 -8.546875 C -2.3125 -10.390625 -2.390625 -12.390625 -2.078125 -14.546875 C -1.148438 -20.546875 1.078125 -26.703125 4.609375 -33.015625 C 8.148438 -39.328125 12 -44.5625 16.15625 -48.71875 C 17.238281 -49.488281 18.28125 -50.140625 19.28125 -50.671875 C 20.28125 -51.210938 21.394531 -51.484375 22.625 -51.484375 C 24.78125 -51.484375 26.703125 -50.484375 28.390625 -48.484375 C 29.628906 -46.640625 30.320312 -44.5625 30.46875 -42.25 C 30.78125 -38.25 30.472656 -34.476562 29.546875 -30.9375 C 29.546875 -30.320312 29.394531 -29.707031 29.09375 -29.09375 C 28.9375 -28.007812 28.664062 -27.003906 28.28125 -26.078125 C 27.894531 -25.160156 27.316406 -24.316406 26.546875 -23.546875 C 26.703125 -23.390625 26.9375 -23.3125 27.25 -23.3125 C 29.394531 -22.394531 30.703125 -20.78125 31.171875 -18.46875 C 31.328125 -17.695312 31.40625 -16.890625 31.40625 -16.046875 C 31.40625 -15.203125 31.40625 -14.394531 31.40625 -13.625 C 31.40625 -13.15625 31.40625 -12.691406 31.40625 -12.234375 C 31.40625 -11.773438 31.40625 -11.238281 31.40625 -10.625 C 32.320312 -10.925781 32.78125 -11.078125 32.78125 -11.078125 C 33.550781 -11.546875 34.359375 -11.96875 35.203125 -12.34375 C 36.054688 -12.726562 36.863281 -13.15625 37.625 -13.625 C 38.394531 -13.925781 39.125 -14.304688 39.8125 -14.765625 C 40.507812 -15.234375 41.164062 -15.695312 41.78125 -16.15625 C 42.863281 -16.925781 44.632812 -18.117188 47.09375 -19.734375 C 49.5625 -21.347656 52.0625 -22.847656 54.59375 -24.234375 C 57.132812 -25.617188 59.023438 -26.46875 60.265625 -26.78125 C 61.179688 -27.09375 61.875 -27.25 62.34375 -27.25 Z M 23.09375 -37.171875 C 23.09375 -38.554688 22.859375 -40.171875 22.390625 -42.015625 C 21.929688 -41.398438 21.546875 -40.898438 21.234375 -40.515625 C 20.929688 -40.128906 20.625 -39.707031 20.3125 -39.25 C 18.007812 -36.019531 15.816406 -32.363281 13.734375 -28.28125 C 11.660156 -24.195312 10.160156 -20.15625 9.234375 -16.15625 C 9.234375 -16.007812 9.191406 -15.78125 9.109375 -15.46875 C 9.035156 -15.15625 9 -14.847656 9 -14.546875 C 11.46875 -16.085938 13.851562 -17.625 16.15625 -19.15625 C 18.46875 -20.695312 20.851562 -22.007812 23.3125 -23.09375 C 22.394531 -23.851562 21.859375 -24.695312 21.703125 -25.625 C 21.546875 -26.550781 21.546875 -27.472656 21.703125 -28.390625 C 21.703125 -28.703125 21.738281 -28.9375 21.8125 -29.09375 C 21.894531 -29.25 21.9375 -29.398438 21.9375 -29.546875 C 22.238281 -30.785156 22.503906 -32.054688 22.734375 -33.359375 C 22.972656 -34.671875 23.09375 -35.941406 23.09375 -37.171875 Z M 23.09375 -37.171875 "/></g></g></g><g fill="#000000" fill-opacity="1"><g transform="translate(236.920948, 193.506629)"><g><path d="M 58.40625 -30.703125 C 59.644531 -29.628906 60.03125 -28.320312 59.5625 -26.78125 C 59.40625 -26.320312 59.171875 -25.859375 58.859375 -25.390625 C 58.554688 -24.929688 58.253906 -24.472656 57.953125 -24.015625 C 56.410156 -22.472656 54.90625 -20.96875 53.4375 -19.5 C 51.976562 -18.039062 50.484375 -16.539062 48.953125 -15 C 47.253906 -13.3125 45.40625 -11.617188 43.40625 -9.921875 C 41.40625 -8.234375 39.328125 -6.773438 37.171875 -5.546875 C 35.472656 -4.929688 34.007812 -4.625 32.78125 -4.625 C 30.164062 -4.769531 28.320312 -6.148438 27.25 -8.765625 C 26.78125 -9.691406 26.46875 -10.613281 26.3125 -11.53125 C 26.164062 -12.457031 26.09375 -13.304688 26.09375 -14.078125 C 25.9375 -16.234375 25.972656 -18.390625 26.203125 -20.546875 C 26.429688 -22.703125 26.703125 -24.859375 27.015625 -27.015625 C 27.316406 -28.554688 27.617188 -30.09375 27.921875 -31.625 C 28.234375 -33.164062 28.46875 -34.707031 28.625 -36.25 C 28.625 -36.863281 28.703125 -37.398438 28.859375 -37.859375 C 28.398438 -37.554688 27.863281 -37.25 27.25 -36.9375 C 23.394531 -34.164062 19.890625 -30.972656 16.734375 -27.359375 C 13.578125 -23.742188 10.613281 -19.9375 7.84375 -15.9375 C 7.382812 -15.3125 6.882812 -14.648438 6.34375 -13.953125 C 5.8125 -13.265625 5.238281 -12.539062 4.625 -11.78125 C 4.3125 -11.3125 3.691406 -10.617188 2.765625 -9.703125 C 1.992188 -9.078125 1.070312 -8.765625 0 -8.765625 C -2.925781 -8.765625 -4.617188 -10.226562 -5.078125 -13.15625 C -5.390625 -14.382812 -5.390625 -15.691406 -5.078125 -17.078125 C -4.304688 -21.390625 -3.378906 -25.582031 -2.296875 -29.65625 C -1.222656 -33.738281 0.078125 -37.78125 1.609375 -41.78125 C 1.765625 -42.09375 1.921875 -42.398438 2.078125 -42.703125 C 2.234375 -43.015625 2.390625 -43.25 2.546875 -43.40625 C 3.304688 -44.332031 4.457031 -44.796875 6 -44.796875 C 7.539062 -44.640625 8.460938 -43.789062 8.765625 -42.25 C 8.921875 -41.632812 9 -41.054688 9 -40.515625 C 9 -39.972656 9 -39.394531 9 -38.78125 C 8.84375 -37.863281 8.6875 -36.90625 8.53125 -35.90625 C 8.382812 -34.90625 8.15625 -33.941406 7.84375 -33.015625 C 7.695312 -32.398438 7.582031 -31.785156 7.5 -31.171875 C 7.425781 -30.554688 7.3125 -29.941406 7.15625 -29.328125 C 7.15625 -29.015625 7.078125 -28.628906 6.921875 -28.171875 C 7.234375 -28.472656 7.503906 -28.738281 7.734375 -28.96875 C 7.960938 -29.207031 8.15625 -29.398438 8.3125 -29.546875 C 10.925781 -32.316406 13.65625 -35.007812 16.5 -37.625 C 19.351562 -40.25 22.394531 -42.5625 25.625 -44.5625 C 26.238281 -44.863281 26.816406 -45.09375 27.359375 -45.25 C 27.898438 -45.40625 28.476562 -45.5625 29.09375 -45.71875 C 29.394531 -45.71875 29.660156 -45.753906 29.890625 -45.828125 C 30.128906 -45.898438 30.320312 -45.9375 30.46875 -45.9375 C 33.238281 -45.9375 35.007812 -44.859375 35.78125 -42.703125 C 36.550781 -40.554688 36.9375 -38.40625 36.9375 -36.25 C 36.78125 -34.40625 36.664062 -32.597656 36.59375 -30.828125 C 36.519531 -29.054688 36.40625 -27.320312 36.25 -25.625 C 36.09375 -23.9375 35.972656 -22.164062 35.890625 -20.3125 C 35.816406 -18.46875 35.78125 -16.695312 35.78125 -15 C 36.394531 -15.3125 36.78125 -15.546875 36.9375 -15.703125 C 39.09375 -17.085938 41.019531 -18.550781 42.71875 -20.09375 C 44.5625 -21.78125 46.367188 -23.394531 48.140625 -24.9375 C 49.910156 -26.476562 51.640625 -28.015625 53.328125 -29.546875 C 53.484375 -30.015625 53.789062 -30.320312 54.25 -30.46875 C 54.863281 -31.09375 55.632812 -31.40625 56.5625 -31.40625 C 57.332031 -31.40625 57.945312 -31.171875 58.40625 -30.703125 Z M 58.40625 -30.703125 "/></g></g></g><g fill="#000000" fill-opacity="1"><g transform="translate(289.329519, 193.506629)"><g/></g></g><g fill="#000000" fill-opacity="1"><g transform="translate(361.362459, 193.506629)"><g><path d="M 133.671875 -159.078125 C 133.984375 -158.460938 134.097656 -157.726562 134.015625 -156.875 C 133.941406 -156.03125 133.828125 -155.222656 133.671875 -154.453125 C 133.054688 -152.609375 132.519531 -150.722656 132.0625 -148.796875 C 131.601562 -146.867188 131.0625 -144.984375 130.4375 -143.140625 C 116.894531 -92.191406 108.738281 -40.707031 105.96875 11.3125 C 105.8125 15.78125 105.65625 20.242188 105.5 24.703125 C 105.351562 29.171875 105.125 33.632812 104.8125 38.09375 C 104.8125 38.707031 104.8125 39.285156 104.8125 39.828125 C 104.8125 40.367188 104.8125 40.945312 104.8125 41.5625 C 104.8125 41.863281 104.8125 42.207031 104.8125 42.59375 C 104.8125 42.976562 104.8125 43.328125 104.8125 43.640625 C 104.351562 45.484375 103.273438 46.710938 101.578125 47.328125 C 101.273438 47.484375 100.816406 47.5625 100.203125 47.5625 C 98.660156 47.5625 97.460938 47.019531 96.609375 45.9375 C 95.765625 44.863281 95.191406 43.554688 94.890625 42.015625 C 94.734375 41.097656 94.613281 40.210938 94.53125 39.359375 C 94.457031 38.515625 94.347656 37.628906 94.203125 36.703125 C 94.046875 32.546875 94.003906 28.425781 94.078125 24.34375 C 94.160156 20.269531 94.273438 16.234375 94.421875 12.234375 C 94.578125 7.460938 94.769531 2.730469 95 -1.953125 C 95.226562 -6.648438 95.421875 -11.3125 95.578125 -15.9375 C 96.347656 -31.9375 98.117188 -47.941406 100.890625 -63.953125 C 103.660156 -79.960938 106.894531 -95.738281 110.59375 -111.28125 C 110.59375 -111.59375 110.628906 -111.863281 110.703125 -112.09375 C 110.773438 -112.320312 110.8125 -112.515625 110.8125 -112.671875 C 110.507812 -112.515625 110.203125 -112.128906 109.890625 -111.515625 C 104.347656 -99.816406 98.84375 -88.15625 93.375 -76.53125 C 87.914062 -64.914062 82.34375 -53.257812 76.65625 -41.5625 C 74.957031 -37.863281 73.222656 -34.164062 71.453125 -30.46875 C 69.679688 -26.78125 67.644531 -23.242188 65.34375 -19.859375 C 64.414062 -18.628906 63.335938 -17.550781 62.109375 -16.625 C 60.566406 -15.539062 59.023438 -15 57.484375 -15 C 55.023438 -15 53.101562 -16.078125 51.71875 -18.234375 C 50.332031 -19.929688 49.367188 -22.316406 48.828125 -25.390625 C 48.285156 -28.472656 47.941406 -31.015625 47.796875 -33.015625 C 47.328125 -38.710938 47.09375 -44.367188 47.09375 -49.984375 C 47.09375 -55.597656 47.171875 -61.175781 47.328125 -66.71875 C 47.640625 -71.644531 47.988281 -76.609375 48.375 -81.609375 C 48.757812 -86.617188 49.101562 -91.507812 49.40625 -96.28125 C 49.40625 -96.894531 49.328125 -97.351562 49.171875 -97.65625 C 49.023438 -97.5 48.910156 -97.265625 48.828125 -96.953125 C 48.753906 -96.648438 48.640625 -96.347656 48.484375 -96.046875 C 46.640625 -89.734375 44.789062 -83.382812 42.9375 -77 C 41.09375 -70.613281 39.320312 -64.265625 37.625 -57.953125 C 35.320312 -50.097656 33.320312 -42.164062 31.625 -34.15625 C 29.9375 -26.15625 28.320312 -18.15625 26.78125 -10.15625 C 26.007812 -6.15625 25.160156 -2.117188 24.234375 1.953125 C 23.316406 6.035156 22.472656 10.15625 21.703125 14.3125 C 21.546875 14.625 21.46875 15.164062 21.46875 15.9375 C 21.3125 17.78125 20.3125 18.703125 18.46875 18.703125 C 17.851562 18.703125 17.390625 18.625 17.078125 18.46875 C 16.160156 18.164062 15.394531 17.242188 14.78125 15.703125 C 14.164062 13.847656 13.929688 12 14.078125 10.15625 C 14.078125 8.15625 14.226562 6.15625 14.53125 4.15625 C 14.84375 2.15625 15.15625 0.152344 15.46875 -1.84375 C 19.46875 -24.320312 24.738281 -46.523438 31.28125 -68.453125 C 37.820312 -90.390625 44.710938 -112.054688 51.953125 -133.453125 C 52.253906 -134.210938 52.597656 -135.015625 52.984375 -135.859375 C 53.367188 -136.710938 53.71875 -137.523438 54.03125 -138.296875 C 54.175781 -138.753906 54.398438 -139.175781 54.703125 -139.5625 C 55.015625 -139.945312 55.25 -140.296875 55.40625 -140.609375 C 56.332031 -141.679688 57.488281 -142.21875 58.875 -142.21875 C 60.5625 -142.21875 61.867188 -141.445312 62.796875 -139.90625 C 63.109375 -139.445312 63.335938 -138.984375 63.484375 -138.515625 C 63.640625 -138.054688 63.796875 -137.597656 63.953125 -137.140625 C 64.265625 -135.910156 64.34375 -134.71875 64.1875 -133.5625 C 64.03125 -132.40625 63.875 -131.210938 63.71875 -129.984375 C 63.5625 -127.671875 63.328125 -125.359375 63.015625 -123.046875 C 62.710938 -120.742188 62.410156 -118.4375 62.109375 -116.125 C 61.179688 -108.125 60.367188 -100.082031 59.671875 -92 C 58.984375 -83.914062 58.488281 -75.796875 58.1875 -67.640625 C 57.875 -62.410156 57.71875 -57.101562 57.71875 -51.71875 C 57.71875 -46.332031 57.796875 -40.945312 57.953125 -35.5625 C 58.109375 -34.476562 58.222656 -33.28125 58.296875 -31.96875 C 58.367188 -30.664062 58.484375 -29.398438 58.640625 -28.171875 C 58.796875 -28.015625 58.875 -27.707031 58.875 -27.25 C 59.332031 -27.394531 59.71875 -27.773438 60.03125 -28.390625 C 60.800781 -29.628906 61.609375 -30.898438 62.453125 -32.203125 C 63.296875 -33.515625 64.023438 -34.863281 64.640625 -36.25 C 67.109375 -40.707031 69.492188 -45.242188 71.796875 -49.859375 C 74.109375 -54.484375 76.421875 -59.023438 78.734375 -63.484375 C 86.734375 -79.191406 94.65625 -94.96875 102.5 -110.8125 C 110.351562 -126.664062 117.820312 -142.675781 124.90625 -158.84375 C 125.363281 -159.769531 125.976562 -160.613281 126.75 -161.375 C 127.519531 -162.144531 128.441406 -162.53125 129.515625 -162.53125 C 129.984375 -162.53125 130.367188 -162.457031 130.671875 -162.3125 C 132.210938 -161.84375 133.210938 -160.765625 133.671875 -159.078125 Z M 133.671875 -159.078125 "/></g></g></g><g fill="#000000" fill-opacity="1"><g transform="translate(481.417359, 193.506629)"><g><path d="M 62.34375 -27.25 C 63.875 -27.25 65.101562 -26.476562 66.03125 -24.9375 C 66.800781 -23.394531 66.644531 -22.007812 65.5625 -20.78125 C 65.414062 -20.625 65.222656 -20.429688 64.984375 -20.203125 C 64.753906 -19.972656 64.488281 -19.703125 64.1875 -19.390625 C 62.332031 -18.160156 60.519531 -16.890625 58.75 -15.578125 C 56.988281 -14.273438 55.179688 -12.929688 53.328125 -11.546875 C 49.023438 -8.617188 44.332031 -5.691406 39.25 -2.765625 C 37.707031 -1.992188 36.164062 -1.335938 34.625 -0.796875 C 33.09375 -0.265625 31.476562 0 29.78125 0 C 25.625 -0.3125 23.082031 -2.546875 22.15625 -6.703125 C 22.007812 -7.316406 21.894531 -7.890625 21.8125 -8.421875 C 21.738281 -8.960938 21.703125 -9.539062 21.703125 -10.15625 C 21.546875 -10.3125 21.46875 -10.695312 21.46875 -11.3125 C 21.3125 -11.15625 21.117188 -11 20.890625 -10.84375 C 20.660156 -10.695312 20.46875 -10.546875 20.3125 -10.390625 C 19.082031 -9.460938 17.890625 -8.535156 16.734375 -7.609375 C 15.578125 -6.691406 14.382812 -5.847656 13.15625 -5.078125 C 12.082031 -4.460938 10.851562 -3.804688 9.46875 -3.109375 C 8.082031 -2.421875 6.773438 -2.078125 5.546875 -2.078125 C 1.535156 -2.078125 -0.925781 -4.234375 -1.84375 -8.546875 C -2.3125 -10.390625 -2.390625 -12.390625 -2.078125 -14.546875 C -1.148438 -20.546875 1.078125 -26.703125 4.609375 -33.015625 C 8.148438 -39.328125 12 -44.5625 16.15625 -48.71875 C 17.238281 -49.488281 18.28125 -50.140625 19.28125 -50.671875 C 20.28125 -51.210938 21.394531 -51.484375 22.625 -51.484375 C 24.78125 -51.484375 26.703125 -50.484375 28.390625 -48.484375 C 29.628906 -46.640625 30.320312 -44.5625 30.46875 -42.25 C 30.78125 -38.25 30.472656 -34.476562 29.546875 -30.9375 C 29.546875 -30.320312 29.394531 -29.707031 29.09375 -29.09375 C 28.9375 -28.007812 28.664062 -27.003906 28.28125 -26.078125 C 27.894531 -25.160156 27.316406 -24.316406 26.546875 -23.546875 C 26.703125 -23.390625 26.9375 -23.3125 27.25 -23.3125 C 29.394531 -22.394531 30.703125 -20.78125 31.171875 -18.46875 C 31.328125 -17.695312 31.40625 -16.890625 31.40625 -16.046875 C 31.40625 -15.203125 31.40625 -14.394531 31.40625 -13.625 C 31.40625 -13.15625 31.40625 -12.691406 31.40625 -12.234375 C 31.40625 -11.773438 31.40625 -11.238281 31.40625 -10.625 C 32.320312 -10.925781 32.78125 -11.078125 32.78125 -11.078125 C 33.550781 -11.546875 34.359375 -11.96875 35.203125 -12.34375 C 36.054688 -12.726562 36.863281 -13.15625 37.625 -13.625 C 38.394531 -13.925781 39.125 -14.304688 39.8125 -14.765625 C 40.507812 -15.234375 41.164062 -15.695312 41.78125 -16.15625 C 42.863281 -16.925781 44.632812 -18.117188 47.09375 -19.734375 C 49.5625 -21.347656 52.0625 -22.847656 54.59375 -24.234375 C 57.132812 -25.617188 59.023438 -26.46875 60.265625 -26.78125 C 61.179688 -27.09375 61.875 -27.25 62.34375 -27.25 Z M 23.09375 -37.171875 C 23.09375 -38.554688 22.859375 -40.171875 22.390625 -42.015625 C 21.929688 -41.398438 21.546875 -40.898438 21.234375 -40.515625 C 20.929688 -40.128906 20.625 -39.707031 20.3125 -39.25 C 18.007812 -36.019531 15.816406 -32.363281 13.734375 -28.28125 C 11.660156 -24.195312 10.160156 -20.15625 9.234375 -16.15625 C 9.234375 -16.007812 9.191406 -15.78125 9.109375 -15.46875 C 9.035156 -15.15625 9 -14.847656 9 -14.546875 C 11.46875 -16.085938 13.851562 -17.625 16.15625 -19.15625 C 18.46875 -20.695312 20.851562 -22.007812 23.3125 -23.09375 C 22.394531 -23.851562 21.859375 -24.695312 21.703125 -25.625 C 21.546875 -26.550781 21.546875 -27.472656 21.703125 -28.390625 C 21.703125 -28.703125 21.738281 -28.9375 21.8125 -29.09375 C 21.894531 -29.25 21.9375 -29.398438 21.9375 -29.546875 C 22.238281 -30.785156 22.503906 -32.054688 22.734375 -33.359375 C 22.972656 -34.671875 23.09375 -35.941406 23.09375 -37.171875 Z M 23.09375 -37.171875 "/></g></g></g><g fill="#000000" fill-opacity="1"><g transform="translate(541.675655, 193.506629)"><g><path d="M 58.40625 -30.703125 C 59.644531 -29.628906 60.03125 -28.320312 59.5625 -26.78125 C 59.40625 -26.320312 59.171875 -25.859375 58.859375 -25.390625 C 58.554688 -24.929688 58.253906 -24.472656 57.953125 -24.015625 C 56.410156 -22.472656 54.90625 -20.96875 53.4375 -19.5 C 51.976562 -18.039062 50.484375 -16.539062 48.953125 -15 C 47.253906 -13.3125 45.40625 -11.617188 43.40625 -9.921875 C 41.40625 -8.234375 39.328125 -6.773438 37.171875 -5.546875 C 35.472656 -4.929688 34.007812 -4.625 32.78125 -4.625 C 30.164062 -4.769531 28.320312 -6.148438 27.25 -8.765625 C 26.78125 -9.691406 26.46875 -10.613281 26.3125 -11.53125 C 26.164062 -12.457031 26.09375 -13.304688 26.09375 -14.078125 C 25.9375 -16.234375 25.972656 -18.390625 26.203125 -20.546875 C 26.429688 -22.703125 26.703125 -24.859375 27.015625 -27.015625 C 27.316406 -28.554688 27.617188 -30.09375 27.921875 -31.625 C 28.234375 -33.164062 28.46875 -34.707031 28.625 -36.25 C 28.625 -36.863281 28.703125 -37.398438 28.859375 -37.859375 C 28.398438 -37.554688 27.863281 -37.25 27.25 -36.9375 C 23.394531 -34.164062 19.890625 -30.972656 16.734375 -27.359375 C 13.578125 -23.742188 10.613281 -19.9375 7.84375 -15.9375 C 7.382812 -15.3125 6.882812 -14.648438 6.34375 -13.953125 C 5.8125 -13.265625 5.238281 -12.539062 4.625 -11.78125 C 4.3125 -11.3125 3.691406 -10.617188 2.765625 -9.703125 C 1.992188 -9.078125 1.070312 -8.765625 0 -8.765625 C -2.925781 -8.765625 -4.617188 -10.226562 -5.078125 -13.15625 C -5.390625 -14.382812 -5.390625 -15.691406 -5.078125 -17.078125 C -4.304688 -21.390625 -3.378906 -25.582031 -2.296875 -29.65625 C -1.222656 -33.738281 0.078125 -37.78125 1.609375 -41.78125 C 1.765625 -42.09375 1.921875 -42.398438 2.078125 -42.703125 C 2.234375 -43.015625 2.390625 -43.25 2.546875 -43.40625 C 3.304688 -44.332031 4.457031 -44.796875 6 -44.796875 C 7.539062 -44.640625 8.460938 -43.789062 8.765625 -42.25 C 8.921875 -41.632812 9 -41.054688 9 -40.515625 C 9 -39.972656 9 -39.394531 9 -38.78125 C 8.84375 -37.863281 8.6875 -36.90625 8.53125 -35.90625 C 8.382812 -34.90625 8.15625 -33.941406 7.84375 -33.015625 C 7.695312 -32.398438 7.582031 -31.785156 7.5 -31.171875 C 7.425781 -30.554688 7.3125 -29.941406 7.15625 -29.328125 C 7.15625 -29.015625 7.078125 -28.628906 6.921875 -28.171875 C 7.234375 -28.472656 7.503906 -28.738281 7.734375 -28.96875 C 7.960938 -29.207031 8.15625 -29.398438 8.3125 -29.546875 C 10.925781 -32.316406 13.65625 -35.007812 16.5 -37.625 C 19.351562 -40.25 22.394531 -42.5625 25.625 -44.5625 C 26.238281 -44.863281 26.816406 -45.09375 27.359375 -45.25 C 27.898438 -45.40625 28.476562 -45.5625 29.09375 -45.71875 C 29.394531 -45.71875 29.660156 -45.753906 29.890625 -45.828125 C 30.128906 -45.898438 30.320312 -45.9375 30.46875 -45.9375 C 33.238281 -45.9375 35.007812 -44.859375 35.78125 -42.703125 C 36.550781 -40.554688 36.9375 -38.40625 36.9375 -36.25 C 36.78125 -34.40625 36.664062 -32.597656 36.59375 -30.828125 C 36.519531 -29.054688 36.40625 -27.320312 36.25 -25.625 C 36.09375 -23.9375 35.972656 -22.164062 35.890625 -20.3125 C 35.816406 -18.46875 35.78125 -16.695312 35.78125 -15 C 36.394531 -15.3125 36.78125 -15.546875 36.9375 -15.703125 C 39.09375 -17.085938 41.019531 -18.550781 42.71875 -20.09375 C 44.5625 -21.78125 46.367188 -23.394531 48.140625 -24.9375 C 49.910156 -26.476562 51.640625 -28.015625 53.328125 -29.546875 C 53.484375 -30.015625 53.789062 -30.320312 54.25 -30.46875 C 54.863281 -31.09375 55.632812 -31.40625 56.5625 -31.40625 C 57.332031 -31.40625 57.945312 -31.171875 58.40625 -30.703125 Z M 58.40625 -30.703125 "/></g></g></g><g fill="#000000" fill-opacity="1"><g transform="translate(594.084248, 193.506629)"><g><path d="M 81.953125 -35.328125 C 83.191406 -33.785156 83.347656 -32.398438 82.421875 -31.171875 C 81.960938 -30.242188 81.347656 -29.394531 80.578125 -28.625 C 78.878906 -27.082031 77.179688 -25.539062 75.484375 -24 C 73.796875 -22.46875 72.109375 -20.929688 70.421875 -19.390625 C 67.953125 -17.234375 65.445312 -15.113281 62.90625 -13.03125 C 60.375 -10.957031 57.796875 -8.847656 55.171875 -6.703125 C 53.328125 -5.160156 51.097656 -3.578125 48.484375 -1.953125 C 45.867188 -0.335938 43.328125 0.46875 40.859375 0.46875 C 37.472656 0.46875 35.085938 -0.722656 33.703125 -3.109375 C 32.316406 -5.503906 31.472656 -8.160156 31.171875 -11.078125 C 31.015625 -12.929688 31.015625 -14.78125 31.171875 -16.625 C 31.328125 -18.46875 31.476562 -20.3125 31.625 -22.15625 C 31.625 -22.3125 31.660156 -22.503906 31.734375 -22.734375 C 31.816406 -22.972656 31.859375 -23.164062 31.859375 -23.3125 C 31.859375 -23.3125 31.859375 -23.347656 31.859375 -23.421875 C 31.859375 -23.503906 31.78125 -23.625 31.625 -23.78125 C 31.476562 -23.625 31.328125 -23.46875 31.171875 -23.3125 C 31.015625 -23.164062 30.78125 -22.9375 30.46875 -22.625 C 28.78125 -20.625 27.007812 -18.660156 25.15625 -16.734375 C 23.3125 -14.816406 21.46875 -12.851562 19.625 -10.84375 C 18.550781 -9.613281 17.359375 -8.421875 16.046875 -7.265625 C 14.734375 -6.117188 13.3125 -5.082031 11.78125 -4.15625 C 10.695312 -3.382812 9.382812 -2.691406 7.84375 -2.078125 C 6.3125 -1.460938 4.851562 -1.15625 3.46875 -1.15625 C 3 -1.15625 2.570312 -1.191406 2.1875 -1.265625 C 1.800781 -1.347656 1.378906 -1.460938 0.921875 -1.609375 C -1.847656 -2.691406 -3.5 -4.5 -4.03125 -7.03125 C -4.570312 -9.570312 -4.84375 -12.078125 -4.84375 -14.546875 C -4.382812 -19.160156 -3.421875 -23.890625 -1.953125 -28.734375 C -0.492188 -33.585938 1.234375 -38.09375 3.234375 -42.25 C 3.535156 -42.5625 3.800781 -42.945312 4.03125 -43.40625 C 4.269531 -43.863281 4.46875 -44.328125 4.625 -44.796875 C 5.539062 -46.023438 6.691406 -46.640625 8.078125 -46.640625 C 8.390625 -46.640625 8.617188 -46.597656 8.765625 -46.515625 C 8.921875 -46.441406 9.078125 -46.40625 9.234375 -46.40625 C 11.078125 -45.789062 12 -44.40625 12 -42.25 C 11.851562 -41.320312 11.738281 -40.4375 11.65625 -39.59375 C 11.582031 -38.75 11.390625 -37.941406 11.078125 -37.171875 C 10.773438 -35.171875 10.351562 -33.285156 9.8125 -31.515625 C 9.269531 -29.742188 8.769531 -27.9375 8.3125 -26.09375 C 7.851562 -24.09375 7.46875 -22.128906 7.15625 -20.203125 C 6.851562 -18.273438 6.625 -16.3125 6.46875 -14.3125 C 6.3125 -14.007812 6.234375 -13.472656 6.234375 -12.703125 C 6.691406 -12.847656 7.226562 -13.078125 7.84375 -13.390625 C 11.082031 -15.390625 14.316406 -17.851562 17.546875 -20.78125 C 20.773438 -23.851562 23.851562 -27.082031 26.78125 -30.46875 C 29.707031 -33.863281 32.632812 -37.253906 35.5625 -40.640625 C 36.476562 -42.023438 37.476562 -43.253906 38.5625 -44.328125 C 39.476562 -46.023438 40.863281 -46.875 42.71875 -46.875 C 43.332031 -46.875 43.789062 -46.796875 44.09375 -46.640625 C 45.789062 -46.023438 46.789062 -44.789062 47.09375 -42.9375 C 47.09375 -41.863281 47.019531 -41.019531 46.875 -40.40625 C 46.5625 -38.40625 46.097656 -36.632812 45.484375 -35.09375 C 44.554688 -32.164062 43.785156 -29.238281 43.171875 -26.3125 C 42.554688 -23.394531 42.09375 -20.394531 41.78125 -17.3125 C 41.78125 -16.394531 41.816406 -15.472656 41.890625 -14.546875 C 41.972656 -13.617188 42.015625 -12.617188 42.015625 -11.546875 C 42.015625 -11.390625 42.050781 -11.15625 42.125 -10.84375 C 42.207031 -10.539062 42.25 -10.234375 42.25 -9.921875 C 43.945312 -10.691406 45.523438 -11.539062 46.984375 -12.46875 C 48.441406 -13.394531 49.941406 -14.394531 51.484375 -15.46875 C 53.796875 -17.3125 56.066406 -19.15625 58.296875 -21 C 60.523438 -22.851562 62.71875 -24.625 64.875 -26.3125 C 66.71875 -27.851562 68.5625 -29.316406 70.40625 -30.703125 C 72.257812 -32.085938 74.109375 -33.550781 75.953125 -35.09375 C 76.265625 -35.40625 76.570312 -35.632812 76.875 -35.78125 C 77.1875 -35.9375 77.5 -36.09375 77.8125 -36.25 C 78.113281 -36.40625 78.570312 -36.484375 79.1875 -36.484375 C 80.269531 -36.484375 81.191406 -36.097656 81.953125 -35.328125 Z M 81.953125 -35.328125 "/></g></g></g><g fill="#000000" fill-opacity="1"><g transform="translate(671.196426, 193.506629)"><g><path d="M 38.09375 -27.703125 C 39.789062 -26.628906 40.175781 -25.09375 39.25 -23.09375 C 39.09375 -22.9375 38.972656 -22.738281 38.890625 -22.5 C 38.816406 -22.269531 38.707031 -22.003906 38.5625 -21.703125 C 38.40625 -21.546875 38.207031 -21.3125 37.96875 -21 C 37.738281 -20.695312 37.472656 -20.394531 37.171875 -20.09375 C 36.398438 -19.164062 35.59375 -18.273438 34.75 -17.421875 C 33.90625 -16.578125 33.097656 -15.769531 32.328125 -15 C 30.941406 -13.925781 29.515625 -12.773438 28.046875 -11.546875 C 26.585938 -10.316406 25.164062 -9.082031 23.78125 -7.84375 C 20.394531 -5.070312 16.546875 -2.992188 12.234375 -1.609375 C 11.003906 -1.304688 9.773438 -1.113281 8.546875 -1.03125 C 7.316406 -0.957031 6.082031 -0.921875 4.84375 -0.921875 C 3.3125 -1.234375 1.351562 -2.117188 -1.03125 -3.578125 C -3.425781 -5.035156 -4.625 -6.613281 -4.625 -8.3125 C -4.925781 -8.925781 -5.078125 -9.3125 -5.078125 -9.46875 C -5.390625 -10.539062 -5.617188 -11.691406 -5.765625 -12.921875 C -5.921875 -14.160156 -6 -15.316406 -6 -16.390625 C -6 -19.160156 -5.613281 -22.238281 -4.84375 -25.625 C -3.613281 -29.625 -2 -33.351562 0 -36.8125 C 2 -40.28125 4.460938 -43.476562 7.390625 -46.40625 C 8.304688 -47.175781 9.265625 -47.90625 10.265625 -48.59375 C 11.273438 -49.289062 12.316406 -49.945312 13.390625 -50.5625 C 14.160156 -50.863281 14.929688 -51.09375 15.703125 -51.25 C 16.472656 -51.40625 17.242188 -51.484375 18.015625 -51.484375 C 19.703125 -51.484375 21.160156 -51.210938 22.390625 -50.671875 C 23.617188 -50.140625 24.546875 -49.023438 25.171875 -47.328125 C 25.785156 -45.484375 25.859375 -43.484375 25.390625 -41.328125 C 24.316406 -36.398438 21.78125 -31.507812 17.78125 -26.65625 C 13.78125 -21.8125 9.625 -18.160156 5.3125 -15.703125 C 4.695312 -15.234375 4.46875 -14.691406 4.625 -14.078125 C 5.082031 -11.921875 6.003906 -10.84375 7.390625 -10.84375 C 8.003906 -10.84375 8.460938 -10.921875 8.765625 -11.078125 C 13.234375 -11.847656 17.695312 -13.925781 22.15625 -17.3125 C 26.625 -20.695312 30.398438 -23.929688 33.484375 -27.015625 C 34.242188 -27.785156 35.164062 -28.171875 36.25 -28.171875 C 37.019531 -28.171875 37.632812 -28.015625 38.09375 -27.703125 Z M 6.234375 -26.546875 C 6.078125 -26.085938 5.921875 -25.585938 5.765625 -25.046875 C 5.617188 -24.503906 5.46875 -24.003906 5.3125 -23.546875 C 5.613281 -23.546875 5.765625 -23.546875 5.765625 -23.546875 C 5.765625 -23.546875 5.84375 -23.546875 6 -23.546875 C 8.613281 -25.703125 10.882812 -28.007812 12.8125 -30.46875 C 14.738281 -32.9375 16.238281 -35.632812 17.3125 -38.5625 C 17.625 -39.175781 17.851562 -39.789062 18 -40.40625 C 18.15625 -41.019531 18.3125 -41.632812 18.46875 -42.25 C 18.46875 -42.5625 18.46875 -42.832031 18.46875 -43.0625 C 18.46875 -43.289062 18.46875 -43.554688 18.46875 -43.859375 C 18.007812 -43.554688 17.625 -43.328125 17.3125 -43.171875 C 17.007812 -43.015625 16.703125 -42.785156 16.390625 -42.484375 C 14.847656 -41.253906 13.691406 -40.019531 12.921875 -38.78125 C 11.390625 -36.9375 10.082031 -34.972656 9 -32.890625 C 7.925781 -30.816406 7.003906 -28.703125 6.234375 -26.546875 Z M 6.234375 -26.546875 "/></g></g></g><g fill="#000000" fill-opacity="1"><g transform="translate(705.135013, 193.506629)"><g><path d="M 78.03125 -147.296875 C 80.5 -147.296875 82.078125 -146.332031 82.765625 -144.40625 C 83.460938 -142.488281 83.8125 -140.53125 83.8125 -138.53125 C 83.8125 -132.375 82.304688 -125.5625 79.296875 -118.09375 C 76.296875 -110.625 72.375 -103.003906 67.53125 -95.234375 C 62.6875 -87.460938 57.414062 -79.84375 51.71875 -72.375 C 46.019531 -64.914062 40.476562 -58.066406 35.09375 -51.828125 C 29.707031 -45.597656 25.015625 -40.328125 21.015625 -36.015625 C 20.546875 -35.398438 20.003906 -34.859375 19.390625 -34.390625 C 18.773438 -33.929688 18.160156 -33.394531 17.546875 -32.78125 C 17.390625 -32.625 17.234375 -32.429688 17.078125 -32.203125 C 16.929688 -31.972656 16.859375 -31.707031 16.859375 -31.40625 C 16.085938 -28.007812 15.46875 -24.617188 15 -21.234375 C 14.539062 -17.847656 14.3125 -14.382812 14.3125 -10.84375 C 14.46875 -9.3125 14.660156 -7.773438 14.890625 -6.234375 C 15.117188 -4.691406 15.46875 -3.148438 15.9375 -1.609375 C 16.238281 -1.148438 16.503906 -0.6875 16.734375 -0.21875 C 16.960938 0.238281 17.15625 0.695312 17.3125 1.15625 C 18.082031 2.082031 18.851562 2.546875 19.625 2.546875 C 19.625 2.546875 19.660156 2.546875 19.734375 2.546875 C 19.816406 2.546875 19.9375 2.546875 20.09375 2.546875 C 22.394531 1.773438 24.625 0.925781 26.78125 0 C 28.9375 -0.925781 31.015625 -2.082031 33.015625 -3.46875 C 35.472656 -5 37.859375 -6.492188 40.171875 -7.953125 C 42.484375 -9.421875 44.789062 -10.925781 47.09375 -12.46875 C 47.40625 -12.625 47.675781 -12.773438 47.90625 -12.921875 C 48.132812 -13.078125 48.328125 -13.234375 48.484375 -13.390625 C 48.796875 -13.546875 49.179688 -13.625 49.640625 -13.625 C 50.554688 -13.625 51.398438 -13.238281 52.171875 -12.46875 C 53.253906 -11.382812 53.410156 -10.148438 52.640625 -8.765625 C 52.484375 -8.617188 52.054688 -8.117188 51.359375 -7.265625 C 50.671875 -6.421875 50.175781 -5.921875 49.875 -5.765625 C 46.945312 -3.617188 43.941406 -1.464844 40.859375 0.6875 C 37.785156 2.84375 34.707031 4.921875 31.625 6.921875 C 30.550781 7.535156 29.515625 8.113281 28.515625 8.65625 C 27.515625 9.195312 26.398438 9.695312 25.171875 10.15625 C 23.929688 10.769531 22.3125 11.234375 20.3125 11.546875 C 17.851562 11.546875 15.851562 11.351562 14.3125 10.96875 C 12.769531 10.582031 11.15625 9.3125 9.46875 7.15625 C 7.625 5 6.273438 2.035156 5.421875 -1.734375 C 4.578125 -5.503906 4.15625 -8.695312 4.15625 -11.3125 C 4.15625 -12.851562 4.191406 -14.390625 4.265625 -15.921875 C 4.347656 -17.460938 4.46875 -19.003906 4.625 -20.546875 C 4.625 -21.003906 4.695312 -21.46875 4.84375 -21.9375 C 3.925781 -21.625 3.46875 -21.46875 3.46875 -21.46875 C 3 -21.46875 2.570312 -21.425781 2.1875 -21.34375 C 1.800781 -21.269531 1.378906 -21.234375 0.921875 -21.234375 C -0.148438 -21.546875 -0.914062 -22.28125 -1.375 -23.4375 C -1.84375 -24.59375 -1.691406 -25.628906 -0.921875 -26.546875 C -0.617188 -26.859375 -0.390625 -27.015625 -0.234375 -27.015625 C 0.691406 -27.785156 1.613281 -28.59375 2.53125 -29.4375 C 3.457031 -30.28125 4.382812 -31.085938 5.3125 -31.859375 C 6.382812 -32.941406 7 -33.941406 7.15625 -34.859375 C 9.15625 -43.941406 12.347656 -53.832031 16.734375 -64.53125 C 21.117188 -75.226562 26.3125 -85.847656 32.3125 -96.390625 C 38.320312 -106.929688 44.828125 -116.550781 51.828125 -125.25 C 58.835938 -133.945312 65.957031 -140.757812 73.1875 -145.6875 C 73.957031 -146.300781 75.113281 -146.757812 76.65625 -147.0625 C 76.957031 -147.21875 77.414062 -147.296875 78.03125 -147.296875 Z M 77.34375 -134.828125 C 77.5 -135.753906 77.613281 -136.675781 77.6875 -137.59375 C 77.769531 -138.519531 77.734375 -139.523438 77.578125 -140.609375 C 77.109375 -140.296875 76.71875 -140.0625 76.40625 -139.90625 C 76.101562 -139.75 75.800781 -139.519531 75.5 -139.21875 C 66.875 -131.675781 59.097656 -122.785156 52.171875 -112.546875 C 45.242188 -102.316406 39.203125 -91.582031 34.046875 -80.34375 C 28.890625 -69.101562 24.46875 -58.097656 20.78125 -47.328125 C 21.238281 -47.484375 21.625 -47.710938 21.9375 -48.015625 C 23.007812 -49.253906 24.046875 -50.410156 25.046875 -51.484375 C 26.046875 -52.554688 27.007812 -53.632812 27.9375 -54.71875 C 32.25 -59.332031 37.054688 -64.910156 42.359375 -71.453125 C 47.671875 -77.992188 52.863281 -84.957031 57.9375 -92.34375 C 63.019531 -99.738281 67.332031 -107.128906 70.875 -114.515625 C 74.414062 -121.898438 76.570312 -128.671875 77.34375 -134.828125 Z M 77.34375 -134.828125 "/></g></g></g></g></g></g></g></g></g></mask><clipPath id="34edd03865"><path d="M 0.769531 0 L 809.230469 0 L 809.230469 262 L 0.769531 262 Z M 0.769531 0 " clip-rule="nonzero"/></clipPath><clipPath id="a17c2f70d4"><rect x="0" width="810" y="0" height="262"/></clipPath><clipPath id="dae4ec6a45"><rect x="0" width="810" y="0" height="262"/></clipPath></defs><g clip-path="url(#5a62a1f2c6)"><g transform="matrix(1, 0, 0, 1, 0.000000000000000111, 0)"><g clip-path="url(#dae4ec6a45)"><g clip-path="url(#60aacb6c3a)"><g mask="url(#e899df4b52)"><g transform="matrix(1, 0, 0, 1, 0.000000000000000111, 0)"><g clip-path="url(#a17c2f70d4)"><g clip-path="url(#34edd03865)"><path fill="url(#bebbb6cf4e)" d="M 0.769531 0 L 0.769531 262 L 809.230469 262 L 809.230469 0 Z M 0.769531 0 " fill-rule="nonzero"/></g></g></g></g></g></g></g></g><g fill="#000000" fill-opacity="1"><g transform="translate(369.646613, 130.251892)"><g><path d="M 5.625 -4.078125 C 5.675781 -4.046875 5.703125 -4.003906 5.703125 -3.953125 C 5.710938 -3.910156 5.691406 -3.867188 5.640625 -3.828125 C 5.609375 -3.804688 5.570312 -3.789062 5.53125 -3.78125 C 5.351562 -3.71875 5.175781 -3.660156 5 -3.609375 C 4.832031 -3.566406 4.664062 -3.519531 4.5 -3.46875 C 4.46875 -3.457031 4.441406 -3.445312 4.421875 -3.4375 C 4.398438 -3.425781 4.375 -3.421875 4.34375 -3.421875 C 4.300781 -3.410156 4.273438 -3.375 4.265625 -3.3125 C 4.234375 -3.1875 4.203125 -3.0625 4.171875 -2.9375 C 4.148438 -2.8125 4.125 -2.679688 4.09375 -2.546875 C 4.09375 -2.535156 4.085938 -2.519531 4.078125 -2.5 C 4.078125 -2.476562 4.070312 -2.457031 4.0625 -2.4375 C 4.082031 -2.4375 4.097656 -2.4375 4.109375 -2.4375 C 4.128906 -2.4375 4.144531 -2.4375 4.15625 -2.4375 C 4.332031 -2.476562 4.503906 -2.519531 4.671875 -2.5625 C 4.847656 -2.613281 5.023438 -2.660156 5.203125 -2.703125 C 5.234375 -2.710938 5.257812 -2.71875 5.28125 -2.71875 C 5.3125 -2.71875 5.34375 -2.722656 5.375 -2.734375 C 5.4375 -2.734375 5.492188 -2.71875 5.546875 -2.6875 C 5.597656 -2.65625 5.625 -2.609375 5.625 -2.546875 C 5.625 -2.484375 5.59375 -2.429688 5.53125 -2.390625 C 5.507812 -2.390625 5.488281 -2.382812 5.46875 -2.375 C 5.445312 -2.375 5.429688 -2.367188 5.421875 -2.359375 C 5.179688 -2.296875 4.945312 -2.234375 4.71875 -2.171875 C 4.488281 -2.109375 4.257812 -2.046875 4.03125 -1.984375 C 3.988281 -1.984375 3.960938 -1.957031 3.953125 -1.90625 C 3.921875 -1.707031 3.882812 -1.503906 3.84375 -1.296875 C 3.800781 -1.097656 3.765625 -0.894531 3.734375 -0.6875 C 3.710938 -0.5625 3.691406 -0.429688 3.671875 -0.296875 C 3.648438 -0.160156 3.628906 -0.0234375 3.609375 0.109375 C 3.609375 0.128906 3.609375 0.148438 3.609375 0.171875 C 3.609375 0.191406 3.609375 0.210938 3.609375 0.234375 C 3.585938 0.347656 3.535156 0.414062 3.453125 0.4375 C 3.441406 0.4375 3.429688 0.4375 3.421875 0.4375 C 3.421875 0.445312 3.414062 0.453125 3.40625 0.453125 C 3.320312 0.453125 3.257812 0.414062 3.21875 0.34375 C 3.175781 0.289062 3.15625 0.234375 3.15625 0.171875 C 3.15625 0.0859375 3.15625 0.0078125 3.15625 -0.0625 C 3.15625 -0.144531 3.160156 -0.226562 3.171875 -0.3125 C 3.203125 -0.550781 3.234375 -0.785156 3.265625 -1.015625 C 3.304688 -1.253906 3.351562 -1.488281 3.40625 -1.71875 C 3.40625 -1.757812 3.410156 -1.789062 3.421875 -1.8125 C 3.390625 -1.800781 3.367188 -1.796875 3.359375 -1.796875 C 3.203125 -1.753906 3.050781 -1.707031 2.90625 -1.65625 C 2.757812 -1.613281 2.601562 -1.570312 2.4375 -1.53125 C 2.394531 -1.519531 2.367188 -1.488281 2.359375 -1.4375 C 2.304688 -1.144531 2.242188 -0.851562 2.171875 -0.5625 C 2.109375 -0.269531 2.050781 0.0234375 2 0.328125 C 2 0.359375 1.992188 0.382812 1.984375 0.40625 C 1.984375 0.4375 1.984375 0.460938 1.984375 0.484375 C 1.972656 0.617188 1.90625 0.6875 1.78125 0.6875 C 1.644531 0.6875 1.570312 0.617188 1.5625 0.484375 C 1.550781 0.398438 1.550781 0.316406 1.5625 0.234375 C 1.582031 0.00390625 1.613281 -0.21875 1.65625 -0.4375 C 1.695312 -0.65625 1.738281 -0.878906 1.78125 -1.109375 C 1.789062 -1.140625 1.796875 -1.171875 1.796875 -1.203125 C 1.804688 -1.242188 1.816406 -1.28125 1.828125 -1.3125 C 1.804688 -1.3125 1.785156 -1.3125 1.765625 -1.3125 C 1.753906 -1.3125 1.738281 -1.304688 1.71875 -1.296875 C 1.53125 -1.222656 1.34375 -1.144531 1.15625 -1.0625 C 0.976562 -0.988281 0.796875 -0.90625 0.609375 -0.8125 C 0.535156 -0.78125 0.46875 -0.757812 0.40625 -0.75 C 0.394531 -0.75 0.378906 -0.75 0.359375 -0.75 C 0.304688 -0.75 0.269531 -0.769531 0.25 -0.8125 C 0.21875 -0.875 0.222656 -0.9375 0.265625 -1 C 0.378906 -1.113281 0.53125 -1.222656 0.71875 -1.328125 C 0.914062 -1.429688 1.113281 -1.519531 1.3125 -1.59375 C 1.519531 -1.675781 1.707031 -1.742188 1.875 -1.796875 C 1.914062 -1.816406 1.941406 -1.851562 1.953125 -1.90625 C 1.984375 -2.019531 2.007812 -2.128906 2.03125 -2.234375 C 2.0625 -2.335938 2.09375 -2.441406 2.125 -2.546875 C 2.125 -2.566406 2.125 -2.578125 2.125 -2.578125 C 2.132812 -2.585938 2.140625 -2.601562 2.140625 -2.625 C 2.109375 -2.625 2.085938 -2.617188 2.078125 -2.609375 C 1.765625 -2.472656 1.457031 -2.335938 1.15625 -2.203125 C 1.125 -2.191406 1.101562 -2.175781 1.09375 -2.15625 C 1.070312 -2.113281 1.023438 -2.09375 0.953125 -2.09375 C 0.878906 -2.09375 0.828125 -2.109375 0.796875 -2.140625 C 0.710938 -2.203125 0.695312 -2.285156 0.75 -2.390625 C 0.789062 -2.421875 0.820312 -2.445312 0.84375 -2.46875 C 1.050781 -2.601562 1.273438 -2.71875 1.515625 -2.8125 C 1.753906 -2.914062 1.984375 -3.007812 2.203125 -3.09375 C 2.242188 -3.113281 2.273438 -3.15625 2.296875 -3.21875 C 2.390625 -3.582031 2.507812 -3.9375 2.65625 -4.28125 C 2.664062 -4.300781 2.675781 -4.320312 2.6875 -4.34375 C 2.695312 -4.375 2.707031 -4.398438 2.71875 -4.421875 C 2.726562 -4.453125 2.753906 -4.476562 2.796875 -4.5 C 2.828125 -4.53125 2.863281 -4.546875 2.90625 -4.546875 C 3 -4.546875 3.050781 -4.492188 3.0625 -4.390625 C 3.082031 -4.347656 3.082031 -4.300781 3.0625 -4.25 C 3.03125 -4.132812 3 -4.015625 2.96875 -3.890625 C 2.9375 -3.773438 2.90625 -3.65625 2.875 -3.53125 C 2.863281 -3.5 2.851562 -3.46875 2.84375 -3.4375 C 2.84375 -3.40625 2.832031 -3.367188 2.8125 -3.328125 C 2.84375 -3.328125 2.863281 -3.332031 2.875 -3.34375 C 3.03125 -3.394531 3.1875 -3.445312 3.34375 -3.5 C 3.5 -3.550781 3.660156 -3.597656 3.828125 -3.640625 C 3.867188 -3.648438 3.898438 -3.679688 3.921875 -3.734375 C 3.960938 -3.867188 4.003906 -3.992188 4.046875 -4.109375 C 4.097656 -4.234375 4.148438 -4.351562 4.203125 -4.46875 C 4.222656 -4.507812 4.242188 -4.550781 4.265625 -4.59375 C 4.285156 -4.625 4.3125 -4.640625 4.34375 -4.640625 C 4.375 -4.648438 4.40625 -4.65625 4.4375 -4.65625 C 4.507812 -4.625 4.546875 -4.570312 4.546875 -4.5 C 4.546875 -4.46875 4.539062 -4.4375 4.53125 -4.40625 C 4.53125 -4.382812 4.523438 -4.351562 4.515625 -4.3125 C 4.503906 -4.25 4.488281 -4.179688 4.46875 -4.109375 C 4.445312 -4.046875 4.425781 -3.984375 4.40625 -3.921875 C 4.40625 -3.898438 4.398438 -3.878906 4.390625 -3.859375 C 4.390625 -3.847656 4.390625 -3.835938 4.390625 -3.828125 C 4.410156 -3.828125 4.425781 -3.828125 4.4375 -3.828125 C 4.457031 -3.828125 4.472656 -3.832031 4.484375 -3.84375 C 4.617188 -3.882812 4.753906 -3.921875 4.890625 -3.953125 C 5.035156 -3.992188 5.171875 -4.03125 5.296875 -4.0625 C 5.378906 -4.082031 5.460938 -4.09375 5.546875 -4.09375 C 5.566406 -4.09375 5.59375 -4.085938 5.625 -4.078125 Z M 3.671875 -2.921875 C 3.691406 -2.972656 3.707031 -3.019531 3.71875 -3.0625 C 3.726562 -3.113281 3.738281 -3.164062 3.75 -3.21875 C 3.738281 -3.21875 3.726562 -3.210938 3.71875 -3.203125 C 3.707031 -3.203125 3.691406 -3.203125 3.671875 -3.203125 C 3.523438 -3.140625 3.375 -3.082031 3.21875 -3.03125 C 3.0625 -2.976562 2.90625 -2.925781 2.75 -2.875 C 2.707031 -2.851562 2.679688 -2.828125 2.671875 -2.796875 C 2.648438 -2.671875 2.625 -2.546875 2.59375 -2.421875 C 2.5625 -2.304688 2.53125 -2.191406 2.5 -2.078125 C 2.5 -2.066406 2.5 -2.054688 2.5 -2.046875 C 2.5 -2.035156 2.5 -2.023438 2.5 -2.015625 C 2.507812 -2.015625 2.515625 -2.015625 2.515625 -2.015625 C 2.523438 -2.015625 2.535156 -2.015625 2.546875 -2.015625 C 2.703125 -2.054688 2.851562 -2.097656 3 -2.140625 C 3.15625 -2.179688 3.3125 -2.222656 3.46875 -2.265625 C 3.5 -2.273438 3.519531 -2.300781 3.53125 -2.34375 C 3.5625 -2.445312 3.585938 -2.546875 3.609375 -2.640625 C 3.628906 -2.734375 3.648438 -2.828125 3.671875 -2.921875 Z M 3.671875 -2.921875 "/></g></g></g><g fill="#000000" fill-opacity="1"><g transform="translate(376.353854, 130.251892)"><g><path d="M 3.59375 -6.796875 C 3.789062 -6.796875 3.941406 -6.738281 4.046875 -6.625 C 4.160156 -6.507812 4.238281 -6.363281 4.28125 -6.1875 C 4.320312 -6.019531 4.34375 -5.859375 4.34375 -5.703125 C 4.34375 -5.503906 4.332031 -5.316406 4.3125 -5.140625 C 4.300781 -4.960938 4.273438 -4.785156 4.234375 -4.609375 C 4.160156 -4.296875 4.050781 -3.914062 3.90625 -3.46875 C 3.757812 -3.019531 3.582031 -2.554688 3.375 -2.078125 C 3.164062 -1.597656 2.9375 -1.132812 2.6875 -0.6875 C 2.445312 -0.25 2.1875 0.117188 1.90625 0.421875 C 1.625 0.734375 1.335938 0.925781 1.046875 1 C 1.015625 1.007812 0.984375 1.015625 0.953125 1.015625 C 0.929688 1.023438 0.90625 1.03125 0.875 1.03125 C 0.625 1.03125 0.445312 0.929688 0.34375 0.734375 C 0.238281 0.546875 0.164062 0.351562 0.125 0.15625 C 0.0703125 -0.238281 0.0703125 -0.644531 0.125 -1.0625 C 0.144531 -1.300781 0.179688 -1.570312 0.234375 -1.875 C 0.296875 -2.175781 0.367188 -2.484375 0.453125 -2.796875 C 0.546875 -3.109375 0.65625 -3.398438 0.78125 -3.671875 C 0.90625 -3.941406 1.050781 -4.164062 1.21875 -4.34375 C 1.238281 -4.363281 1.253906 -4.382812 1.265625 -4.40625 C 1.273438 -4.425781 1.285156 -4.441406 1.296875 -4.453125 C 1.367188 -4.628906 1.484375 -4.84375 1.640625 -5.09375 C 1.796875 -5.351562 1.972656 -5.601562 2.171875 -5.84375 C 2.367188 -6.09375 2.582031 -6.304688 2.8125 -6.484375 C 3.039062 -6.660156 3.257812 -6.757812 3.46875 -6.78125 C 3.488281 -6.78125 3.507812 -6.78125 3.53125 -6.78125 C 3.550781 -6.789062 3.570312 -6.796875 3.59375 -6.796875 Z M 3.890625 -5.140625 C 3.898438 -5.265625 3.898438 -5.382812 3.890625 -5.5 C 3.890625 -5.625 3.882812 -5.75 3.875 -5.875 C 3.863281 -5.914062 3.851562 -5.960938 3.84375 -6.015625 C 3.832031 -6.066406 3.8125 -6.109375 3.78125 -6.140625 C 3.75 -6.203125 3.707031 -6.234375 3.65625 -6.234375 C 3.632812 -6.234375 3.613281 -6.226562 3.59375 -6.21875 C 3.539062 -6.207031 3.492188 -6.191406 3.453125 -6.171875 C 3.421875 -6.148438 3.382812 -6.125 3.34375 -6.09375 C 3.15625 -5.976562 2.960938 -5.800781 2.765625 -5.5625 C 2.566406 -5.332031 2.382812 -5.09375 2.21875 -4.84375 C 2.050781 -4.601562 1.921875 -4.382812 1.828125 -4.1875 C 1.773438 -4.082031 1.734375 -3.96875 1.703125 -3.84375 C 1.679688 -3.726562 1.671875 -3.601562 1.671875 -3.46875 C 1.671875 -3.4375 1.671875 -3.410156 1.671875 -3.390625 C 1.671875 -3.367188 1.671875 -3.34375 1.671875 -3.3125 C 1.671875 -3.289062 1.671875 -3.265625 1.671875 -3.234375 C 1.648438 -3.148438 1.601562 -3.109375 1.53125 -3.109375 C 1.507812 -3.109375 1.484375 -3.113281 1.453125 -3.125 C 1.421875 -3.144531 1.382812 -3.164062 1.34375 -3.1875 C 1.3125 -3.207031 1.285156 -3.234375 1.265625 -3.265625 C 1.253906 -3.242188 1.242188 -3.222656 1.234375 -3.203125 C 1.234375 -3.191406 1.234375 -3.175781 1.234375 -3.15625 C 1.109375 -2.8125 1.003906 -2.457031 0.921875 -2.09375 C 0.847656 -1.738281 0.789062 -1.375 0.75 -1 C 0.75 -0.832031 0.742188 -0.671875 0.734375 -0.515625 C 0.722656 -0.359375 0.726562 -0.195312 0.75 -0.03125 C 0.75 -0.0078125 0.753906 0.0351562 0.765625 0.109375 C 0.773438 0.191406 0.789062 0.265625 0.8125 0.328125 C 0.832031 0.398438 0.863281 0.4375 0.90625 0.4375 C 0.9375 0.4375 0.957031 0.4375 0.96875 0.4375 C 1.101562 0.394531 1.226562 0.320312 1.34375 0.21875 C 1.46875 0.113281 1.578125 0.0078125 1.671875 -0.09375 C 1.921875 -0.351562 2.164062 -0.695312 2.40625 -1.125 C 2.65625 -1.5625 2.882812 -2.019531 3.09375 -2.5 C 3.300781 -2.988281 3.472656 -3.46875 3.609375 -3.9375 C 3.753906 -4.40625 3.847656 -4.804688 3.890625 -5.140625 Z M 3.890625 -5.140625 "/></g></g></g><g fill="#000000" fill-opacity="1"><g transform="translate(380.366223, 130.251892)"><g><path d="M 2.734375 -7.53125 C 2.785156 -7.5625 2.84375 -7.578125 2.90625 -7.578125 C 2.976562 -7.578125 3.039062 -7.546875 3.09375 -7.484375 C 3.15625 -7.429688 3.179688 -7.359375 3.171875 -7.265625 C 3.171875 -7.191406 3.148438 -7.085938 3.109375 -6.953125 C 3.066406 -6.828125 3.019531 -6.695312 2.96875 -6.5625 C 2.914062 -6.4375 2.875 -6.335938 2.84375 -6.265625 C 2.375 -5.117188 1.925781 -3.960938 1.5 -2.796875 C 1.082031 -1.640625 0.734375 -0.457031 0.453125 0.75 C 0.453125 0.75 0.453125 0.757812 0.453125 0.78125 C 0.453125 0.800781 0.453125 0.820312 0.453125 0.84375 C 0.472656 0.914062 0.46875 1 0.4375 1.09375 C 0.394531 1.175781 0.328125 1.21875 0.234375 1.21875 C 0.140625 1.21875 0.0703125 1.1875 0.03125 1.125 C -0.0078125 1.070312 -0.03125 1 -0.03125 0.90625 C -0.03125 0.820312 -0.0234375 0.734375 -0.015625 0.640625 C -0.00390625 0.546875 0.0078125 0.457031 0.03125 0.375 C 0.257812 -0.820312 0.578125 -1.992188 0.984375 -3.140625 C 1.390625 -4.285156 1.84375 -5.40625 2.34375 -6.5 C 2.351562 -6.539062 2.363281 -6.578125 2.375 -6.609375 C 2.394531 -6.648438 2.414062 -6.6875 2.4375 -6.71875 C 2.40625 -6.71875 2.382812 -6.710938 2.375 -6.703125 C 2.21875 -6.566406 2.0625 -6.429688 1.90625 -6.296875 C 1.75 -6.160156 1.59375 -6.023438 1.4375 -5.890625 C 1.394531 -5.859375 1.351562 -5.816406 1.3125 -5.765625 C 1.269531 -5.710938 1.226562 -5.664062 1.1875 -5.625 C 1.164062 -5.613281 1.140625 -5.59375 1.109375 -5.5625 C 1.046875 -5.519531 0.992188 -5.5 0.953125 -5.5 C 0.921875 -5.5 0.882812 -5.515625 0.84375 -5.546875 C 0.738281 -5.609375 0.71875 -5.695312 0.78125 -5.8125 C 0.789062 -5.851562 0.8125 -5.894531 0.84375 -5.9375 C 0.945312 -6.039062 1.046875 -6.132812 1.140625 -6.21875 C 1.359375 -6.40625 1.578125 -6.59375 1.796875 -6.78125 C 2.023438 -6.96875 2.25 -7.148438 2.46875 -7.328125 C 2.519531 -7.378906 2.578125 -7.421875 2.640625 -7.453125 C 2.660156 -7.484375 2.691406 -7.507812 2.734375 -7.53125 Z M 2.734375 -7.53125 "/></g></g></g><g fill="#000000" fill-opacity="1"><g transform="translate(382.43828, 130.251892)"><g><path d="M 4.75 -7.53125 C 4.820312 -7.53125 4.894531 -7.519531 4.96875 -7.5 C 5.039062 -7.488281 5.109375 -7.453125 5.171875 -7.390625 C 5.234375 -7.335938 5.265625 -7.269531 5.265625 -7.1875 C 5.265625 -7.101562 5.234375 -7.03125 5.171875 -6.96875 C 5.066406 -6.851562 4.9375 -6.796875 4.78125 -6.796875 C 4.726562 -6.796875 4.6875 -6.835938 4.65625 -6.921875 C 4.300781 -6.847656 3.945312 -6.765625 3.59375 -6.671875 C 3.25 -6.578125 2.898438 -6.484375 2.546875 -6.390625 C 2.515625 -6.378906 2.488281 -6.367188 2.46875 -6.359375 C 2.445312 -6.359375 2.421875 -6.351562 2.390625 -6.34375 C 2.359375 -6.34375 2.335938 -6.320312 2.328125 -6.28125 C 2.160156 -5.9375 1.992188 -5.59375 1.828125 -5.25 C 1.660156 -4.90625 1.507812 -4.550781 1.375 -4.1875 C 1.363281 -4.15625 1.351562 -4.125 1.34375 -4.09375 C 1.351562 -4.09375 1.367188 -4.09375 1.390625 -4.09375 C 1.410156 -4.101562 1.425781 -4.109375 1.4375 -4.109375 C 1.726562 -4.234375 2.050781 -4.328125 2.40625 -4.390625 C 2.769531 -4.460938 3.109375 -4.5 3.421875 -4.5 C 3.671875 -4.5 3.910156 -4.460938 4.140625 -4.390625 C 4.367188 -4.328125 4.554688 -4.21875 4.703125 -4.0625 C 4.847656 -3.90625 4.925781 -3.679688 4.9375 -3.390625 C 4.957031 -3.234375 4.953125 -3.082031 4.921875 -2.9375 C 4.890625 -2.800781 4.851562 -2.664062 4.8125 -2.53125 C 4.707031 -2.257812 4.550781 -1.96875 4.34375 -1.65625 C 4.132812 -1.351562 3.882812 -1.050781 3.59375 -0.75 C 3.3125 -0.457031 3.015625 -0.1875 2.703125 0.0625 C 2.390625 0.320312 2.078125 0.539062 1.765625 0.71875 C 1.460938 0.90625 1.179688 1.03125 0.921875 1.09375 C 0.878906 1.101562 0.835938 1.109375 0.796875 1.109375 C 0.765625 1.117188 0.726562 1.125 0.6875 1.125 C 0.53125 1.125 0.414062 1.070312 0.34375 0.96875 C 0.289062 0.882812 0.28125 0.796875 0.3125 0.703125 C 0.34375 0.609375 0.40625 0.550781 0.5 0.53125 C 0.519531 0.53125 0.535156 0.523438 0.546875 0.515625 C 0.554688 0.515625 0.566406 0.519531 0.578125 0.53125 C 0.648438 0.53125 0.71875 0.515625 0.78125 0.484375 C 1.082031 0.347656 1.375 0.175781 1.65625 -0.03125 C 1.894531 -0.195312 2.148438 -0.390625 2.421875 -0.609375 C 2.703125 -0.835938 2.96875 -1.082031 3.21875 -1.34375 C 3.476562 -1.613281 3.703125 -1.890625 3.890625 -2.171875 C 4.085938 -2.453125 4.21875 -2.742188 4.28125 -3.046875 C 4.300781 -3.179688 4.304688 -3.304688 4.296875 -3.421875 C 4.273438 -3.609375 4.1875 -3.734375 4.03125 -3.796875 C 3.882812 -3.867188 3.726562 -3.90625 3.5625 -3.90625 C 3.144531 -3.90625 2.769531 -3.859375 2.4375 -3.765625 C 2.101562 -3.679688 1.742188 -3.566406 1.359375 -3.421875 C 1.316406 -3.410156 1.269531 -3.394531 1.21875 -3.375 C 1.175781 -3.363281 1.132812 -3.347656 1.09375 -3.328125 C 1.0625 -3.316406 1.035156 -3.3125 1.015625 -3.3125 C 1.003906 -3.3125 0.984375 -3.3125 0.953125 -3.3125 C 0.921875 -3.3125 0.894531 -3.3125 0.875 -3.3125 C 0.675781 -3.34375 0.578125 -3.457031 0.578125 -3.65625 C 0.566406 -3.695312 0.566406 -3.734375 0.578125 -3.765625 C 0.585938 -3.804688 0.597656 -3.847656 0.609375 -3.890625 C 0.753906 -4.265625 0.90625 -4.625 1.0625 -4.96875 C 1.21875 -5.320312 1.394531 -5.671875 1.59375 -6.015625 C 1.613281 -6.046875 1.625 -6.066406 1.625 -6.078125 C 1.59375 -6.078125 1.566406 -6.070312 1.546875 -6.0625 C 1.523438 -6.050781 1.5 -6.046875 1.46875 -6.046875 C 1.445312 -6.035156 1.421875 -6.023438 1.390625 -6.015625 C 1.367188 -6.003906 1.347656 -5.992188 1.328125 -5.984375 C 1.273438 -5.984375 1.222656 -5.992188 1.171875 -6.015625 C 1.117188 -6.035156 1.070312 -6.070312 1.03125 -6.125 C 0.957031 -6.21875 0.945312 -6.328125 1 -6.453125 C 1.039062 -6.523438 1.09375 -6.578125 1.15625 -6.609375 C 1.1875 -6.617188 1.222656 -6.632812 1.265625 -6.65625 C 1.316406 -6.6875 1.363281 -6.707031 1.40625 -6.71875 C 1.851562 -6.894531 2.316406 -7.039062 2.796875 -7.15625 C 3.273438 -7.28125 3.75 -7.382812 4.21875 -7.46875 C 4.300781 -7.476562 4.382812 -7.488281 4.46875 -7.5 C 4.5625 -7.507812 4.65625 -7.519531 4.75 -7.53125 Z M 4.75 -7.53125 "/></g></g></g><g fill="#000000" fill-opacity="1"><g transform="translate(387.324983, 130.251892)"><g><path d="M 5.375 -7.796875 C 5.457031 -7.742188 5.5 -7.675781 5.5 -7.59375 C 5.5 -7.519531 5.488281 -7.445312 5.46875 -7.375 C 5.414062 -7.25 5.359375 -7.113281 5.296875 -6.96875 C 5.015625 -6.289062 4.753906 -5.609375 4.515625 -4.921875 C 4.285156 -4.234375 4.054688 -3.546875 3.828125 -2.859375 C 3.828125 -2.847656 3.828125 -2.835938 3.828125 -2.828125 C 3.828125 -2.816406 3.820312 -2.804688 3.8125 -2.796875 C 3.84375 -2.785156 3.882812 -2.78125 3.9375 -2.78125 C 4.039062 -2.78125 4.125 -2.75 4.1875 -2.6875 C 4.257812 -2.613281 4.285156 -2.523438 4.265625 -2.421875 C 4.242188 -2.304688 4.164062 -2.25 4.03125 -2.25 C 3.914062 -2.25 3.789062 -2.238281 3.65625 -2.21875 C 3.632812 -2.207031 3.613281 -2.179688 3.59375 -2.140625 C 3.570312 -2.054688 3.546875 -1.96875 3.515625 -1.875 C 3.484375 -1.78125 3.453125 -1.691406 3.421875 -1.609375 C 3.285156 -1.140625 3.140625 -0.671875 2.984375 -0.203125 C 2.835938 0.253906 2.691406 0.722656 2.546875 1.203125 C 2.535156 1.242188 2.519531 1.28125 2.5 1.3125 C 2.457031 1.382812 2.394531 1.421875 2.3125 1.421875 C 2.300781 1.421875 2.289062 1.421875 2.28125 1.421875 C 2.28125 1.421875 2.273438 1.421875 2.265625 1.421875 C 2.148438 1.390625 2.085938 1.328125 2.078125 1.234375 C 2.066406 1.179688 2.066406 1.140625 2.078125 1.109375 C 2.109375 0.992188 2.132812 0.878906 2.15625 0.765625 C 2.175781 0.648438 2.203125 0.539062 2.234375 0.4375 C 2.335938 0.0507812 2.445312 -0.332031 2.5625 -0.71875 C 2.6875 -1.113281 2.800781 -1.503906 2.90625 -1.890625 C 2.90625 -1.929688 2.921875 -1.976562 2.953125 -2.03125 C 2.921875 -2.03125 2.894531 -2.023438 2.875 -2.015625 C 2.863281 -2.015625 2.851562 -2.015625 2.84375 -2.015625 C 2.601562 -1.941406 2.363281 -1.867188 2.125 -1.796875 C 1.894531 -1.734375 1.660156 -1.671875 1.421875 -1.609375 C 1.335938 -1.578125 1.25 -1.550781 1.15625 -1.53125 C 1.070312 -1.519531 0.988281 -1.507812 0.90625 -1.5 C 0.863281 -1.5 0.820312 -1.5 0.78125 -1.5 C 0.738281 -1.5 0.695312 -1.5 0.65625 -1.5 C 0.539062 -1.507812 0.445312 -1.554688 0.375 -1.640625 C 0.300781 -1.734375 0.253906 -1.832031 0.234375 -1.9375 C 0.234375 -2.03125 0.242188 -2.140625 0.265625 -2.265625 C 0.285156 -2.359375 0.3125 -2.453125 0.34375 -2.546875 C 0.382812 -2.648438 0.425781 -2.75 0.46875 -2.84375 C 0.769531 -3.570312 1.144531 -4.300781 1.59375 -5.03125 C 2.050781 -5.769531 2.523438 -6.453125 3.015625 -7.078125 C 3.023438 -7.097656 3.035156 -7.113281 3.046875 -7.125 C 3.066406 -7.144531 3.085938 -7.160156 3.109375 -7.171875 C 3.117188 -7.171875 3.128906 -7.171875 3.140625 -7.171875 C 3.160156 -7.179688 3.179688 -7.1875 3.203125 -7.1875 C 3.242188 -7.1875 3.285156 -7.164062 3.328125 -7.125 C 3.367188 -7.09375 3.390625 -7.050781 3.390625 -7 C 3.390625 -6.925781 3.363281 -6.835938 3.3125 -6.734375 C 3.257812 -6.640625 3.210938 -6.5625 3.171875 -6.5 C 2.753906 -5.800781 2.359375 -5.113281 1.984375 -4.4375 C 1.609375 -3.769531 1.269531 -3.050781 0.96875 -2.28125 C 0.957031 -2.25 0.945312 -2.21875 0.9375 -2.1875 C 0.957031 -2.1875 0.976562 -2.1875 1 -2.1875 C 1.019531 -2.195312 1.035156 -2.203125 1.046875 -2.203125 C 1.378906 -2.296875 1.710938 -2.378906 2.046875 -2.453125 C 2.378906 -2.523438 2.71875 -2.597656 3.0625 -2.671875 C 3.125 -2.691406 3.15625 -2.722656 3.15625 -2.765625 C 3.3125 -3.242188 3.460938 -3.71875 3.609375 -4.1875 C 3.765625 -4.664062 3.929688 -5.140625 4.109375 -5.609375 C 4.234375 -5.929688 4.363281 -6.25 4.5 -6.5625 C 4.632812 -6.875 4.78125 -7.179688 4.9375 -7.484375 C 4.957031 -7.515625 4.972656 -7.546875 4.984375 -7.578125 C 5.003906 -7.609375 5.019531 -7.632812 5.03125 -7.65625 C 5.050781 -7.675781 5.082031 -7.710938 5.125 -7.765625 C 5.15625 -7.785156 5.179688 -7.796875 5.203125 -7.796875 C 5.222656 -7.804688 5.242188 -7.8125 5.265625 -7.8125 C 5.285156 -7.8125 5.320312 -7.804688 5.375 -7.796875 Z M 5.375 -7.796875 "/></g></g></g><g fill="#000000" fill-opacity="1"><g transform="translate(392.187733, 130.251892)"><g><path d="M 4.484375 -4.296875 C 4.253906 -4.117188 4.03125 -3.9375 3.8125 -3.75 C 3.601562 -3.570312 3.382812 -3.394531 3.15625 -3.21875 C 3.144531 -3.195312 3.128906 -3.175781 3.109375 -3.15625 C 3.085938 -3.132812 3.070312 -3.117188 3.0625 -3.109375 C 3.1875 -2.972656 3.289062 -2.84375 3.375 -2.71875 C 3.46875 -2.601562 3.550781 -2.460938 3.625 -2.296875 C 3.769531 -1.878906 3.773438 -1.445312 3.640625 -1 C 3.566406 -0.769531 3.453125 -0.523438 3.296875 -0.265625 C 3.140625 -0.00390625 2.945312 0.238281 2.71875 0.46875 C 2.5 0.707031 2.269531 0.898438 2.03125 1.046875 C 1.789062 1.191406 1.550781 1.265625 1.3125 1.265625 C 1.09375 1.265625 0.898438 1.1875 0.734375 1.03125 C 0.566406 0.882812 0.460938 0.703125 0.421875 0.484375 C 0.398438 0.359375 0.394531 0.234375 0.40625 0.109375 C 0.414062 -0.00390625 0.4375 -0.117188 0.46875 -0.234375 C 0.613281 -0.742188 0.847656 -1.226562 1.171875 -1.6875 C 1.503906 -2.15625 1.851562 -2.570312 2.21875 -2.9375 C 2.226562 -2.945312 2.242188 -2.96875 2.265625 -3 C 2.242188 -3.007812 2.21875 -3.023438 2.1875 -3.046875 C 2.113281 -3.097656 2.039062 -3.144531 1.96875 -3.1875 C 1.894531 -3.238281 1.816406 -3.296875 1.734375 -3.359375 C 1.554688 -3.484375 1.378906 -3.632812 1.203125 -3.8125 C 1.035156 -4 0.9375 -4.207031 0.90625 -4.4375 C 0.875 -4.550781 0.863281 -4.65625 0.875 -4.75 C 0.882812 -4.851562 0.90625 -4.957031 0.9375 -5.0625 C 1.0625 -5.445312 1.269531 -5.816406 1.5625 -6.171875 C 1.863281 -6.523438 2.207031 -6.820312 2.59375 -7.0625 C 2.988281 -7.300781 3.382812 -7.4375 3.78125 -7.46875 C 4.09375 -7.46875 4.359375 -7.40625 4.578125 -7.28125 C 4.804688 -7.15625 4.953125 -6.925781 5.015625 -6.59375 C 5.046875 -6.300781 5.015625 -6.023438 4.921875 -5.765625 C 4.910156 -5.722656 4.894531 -5.679688 4.875 -5.640625 C 4.863281 -5.597656 4.847656 -5.554688 4.828125 -5.515625 C 4.816406 -5.484375 4.800781 -5.457031 4.78125 -5.4375 C 4.757812 -5.394531 4.71875 -5.375 4.65625 -5.375 C 4.65625 -5.375 4.648438 -5.375 4.640625 -5.375 C 4.640625 -5.375 4.632812 -5.375 4.625 -5.375 C 4.5625 -5.382812 4.519531 -5.429688 4.5 -5.515625 C 4.5 -5.535156 4.5 -5.554688 4.5 -5.578125 C 4.5 -5.609375 4.503906 -5.632812 4.515625 -5.65625 C 4.523438 -5.707031 4.535156 -5.753906 4.546875 -5.796875 C 4.554688 -5.835938 4.566406 -5.882812 4.578125 -5.9375 C 4.628906 -6.164062 4.617188 -6.378906 4.546875 -6.578125 C 4.484375 -6.804688 4.328125 -6.9375 4.078125 -6.96875 C 4.054688 -6.976562 4.035156 -6.984375 4.015625 -6.984375 C 3.992188 -6.984375 3.972656 -6.984375 3.953125 -6.984375 C 3.859375 -6.984375 3.75 -6.960938 3.625 -6.921875 C 3.332031 -6.847656 3.023438 -6.691406 2.703125 -6.453125 C 2.390625 -6.222656 2.117188 -5.957031 1.890625 -5.65625 C 1.660156 -5.351562 1.515625 -5.050781 1.453125 -4.75 C 1.429688 -4.601562 1.453125 -4.46875 1.515625 -4.34375 C 1.585938 -4.21875 1.675781 -4.109375 1.78125 -4.015625 C 1.894531 -3.921875 2.015625 -3.835938 2.140625 -3.765625 C 2.285156 -3.648438 2.457031 -3.535156 2.65625 -3.421875 C 2.664062 -3.421875 2.675781 -3.414062 2.6875 -3.40625 C 2.695312 -3.414062 2.707031 -3.425781 2.71875 -3.4375 C 2.738281 -3.445312 2.753906 -3.457031 2.765625 -3.46875 C 3.085938 -3.75 3.414062 -4.023438 3.75 -4.296875 C 4.09375 -4.566406 4.4375 -4.820312 4.78125 -5.0625 C 4.863281 -5.132812 4.941406 -5.191406 5.015625 -5.234375 C 5.085938 -5.265625 5.144531 -5.28125 5.1875 -5.28125 C 5.257812 -5.28125 5.320312 -5.242188 5.375 -5.171875 C 5.40625 -5.097656 5.390625 -5.023438 5.328125 -4.953125 C 5.328125 -4.941406 5.320312 -4.929688 5.3125 -4.921875 C 5.3125 -4.921875 5.304688 -4.914062 5.296875 -4.90625 C 5.148438 -4.820312 5.007812 -4.726562 4.875 -4.625 C 4.75 -4.519531 4.617188 -4.410156 4.484375 -4.296875 Z M 3.15625 -1.921875 C 3.125 -2.085938 3.0625 -2.234375 2.96875 -2.359375 C 2.882812 -2.484375 2.78125 -2.601562 2.65625 -2.71875 C 2.625 -2.695312 2.601562 -2.679688 2.59375 -2.671875 C 2.3125 -2.378906 2.03125 -2.054688 1.75 -1.703125 C 1.46875 -1.347656 1.253906 -0.976562 1.109375 -0.59375 C 1.054688 -0.488281 1.015625 -0.382812 0.984375 -0.28125 C 0.953125 -0.175781 0.925781 -0.0664062 0.90625 0.046875 C 0.882812 0.191406 0.894531 0.320312 0.9375 0.4375 C 1 0.625 1.117188 0.71875 1.296875 0.71875 C 1.304688 0.71875 1.320312 0.71875 1.34375 0.71875 C 1.375 0.71875 1.398438 0.710938 1.421875 0.703125 C 1.484375 0.691406 1.535156 0.671875 1.578125 0.640625 C 1.921875 0.441406 2.226562 0.183594 2.5 -0.125 C 2.769531 -0.4375 2.96875 -0.78125 3.09375 -1.15625 C 3.175781 -1.414062 3.195312 -1.671875 3.15625 -1.921875 Z M 3.15625 -1.921875 "/></g></g></g><g fill="#000000" fill-opacity="1"><g transform="translate(396.930709, 130.251892)"><g><path d="M 4.484375 -4.296875 C 4.253906 -4.117188 4.03125 -3.9375 3.8125 -3.75 C 3.601562 -3.570312 3.382812 -3.394531 3.15625 -3.21875 C 3.144531 -3.195312 3.128906 -3.175781 3.109375 -3.15625 C 3.085938 -3.132812 3.070312 -3.117188 3.0625 -3.109375 C 3.1875 -2.972656 3.289062 -2.84375 3.375 -2.71875 C 3.46875 -2.601562 3.550781 -2.460938 3.625 -2.296875 C 3.769531 -1.878906 3.773438 -1.445312 3.640625 -1 C 3.566406 -0.769531 3.453125 -0.523438 3.296875 -0.265625 C 3.140625 -0.00390625 2.945312 0.238281 2.71875 0.46875 C 2.5 0.707031 2.269531 0.898438 2.03125 1.046875 C 1.789062 1.191406 1.550781 1.265625 1.3125 1.265625 C 1.09375 1.265625 0.898438 1.1875 0.734375 1.03125 C 0.566406 0.882812 0.460938 0.703125 0.421875 0.484375 C 0.398438 0.359375 0.394531 0.234375 0.40625 0.109375 C 0.414062 -0.00390625 0.4375 -0.117188 0.46875 -0.234375 C 0.613281 -0.742188 0.847656 -1.226562 1.171875 -1.6875 C 1.503906 -2.15625 1.851562 -2.570312 2.21875 -2.9375 C 2.226562 -2.945312 2.242188 -2.96875 2.265625 -3 C 2.242188 -3.007812 2.21875 -3.023438 2.1875 -3.046875 C 2.113281 -3.097656 2.039062 -3.144531 1.96875 -3.1875 C 1.894531 -3.238281 1.816406 -3.296875 1.734375 -3.359375 C 1.554688 -3.484375 1.378906 -3.632812 1.203125 -3.8125 C 1.035156 -4 0.9375 -4.207031 0.90625 -4.4375 C 0.875 -4.550781 0.863281 -4.65625 0.875 -4.75 C 0.882812 -4.851562 0.90625 -4.957031 0.9375 -5.0625 C 1.0625 -5.445312 1.269531 -5.816406 1.5625 -6.171875 C 1.863281 -6.523438 2.207031 -6.820312 2.59375 -7.0625 C 2.988281 -7.300781 3.382812 -7.4375 3.78125 -7.46875 C 4.09375 -7.46875 4.359375 -7.40625 4.578125 -7.28125 C 4.804688 -7.15625 4.953125 -6.925781 5.015625 -6.59375 C 5.046875 -6.300781 5.015625 -6.023438 4.921875 -5.765625 C 4.910156 -5.722656 4.894531 -5.679688 4.875 -5.640625 C 4.863281 -5.597656 4.847656 -5.554688 4.828125 -5.515625 C 4.816406 -5.484375 4.800781 -5.457031 4.78125 -5.4375 C 4.757812 -5.394531 4.71875 -5.375 4.65625 -5.375 C 4.65625 -5.375 4.648438 -5.375 4.640625 -5.375 C 4.640625 -5.375 4.632812 -5.375 4.625 -5.375 C 4.5625 -5.382812 4.519531 -5.429688 4.5 -5.515625 C 4.5 -5.535156 4.5 -5.554688 4.5 -5.578125 C 4.5 -5.609375 4.503906 -5.632812 4.515625 -5.65625 C 4.523438 -5.707031 4.535156 -5.753906 4.546875 -5.796875 C 4.554688 -5.835938 4.566406 -5.882812 4.578125 -5.9375 C 4.628906 -6.164062 4.617188 -6.378906 4.546875 -6.578125 C 4.484375 -6.804688 4.328125 -6.9375 4.078125 -6.96875 C 4.054688 -6.976562 4.035156 -6.984375 4.015625 -6.984375 C 3.992188 -6.984375 3.972656 -6.984375 3.953125 -6.984375 C 3.859375 -6.984375 3.75 -6.960938 3.625 -6.921875 C 3.332031 -6.847656 3.023438 -6.691406 2.703125 -6.453125 C 2.390625 -6.222656 2.117188 -5.957031 1.890625 -5.65625 C 1.660156 -5.351562 1.515625 -5.050781 1.453125 -4.75 C 1.429688 -4.601562 1.453125 -4.46875 1.515625 -4.34375 C 1.585938 -4.21875 1.675781 -4.109375 1.78125 -4.015625 C 1.894531 -3.921875 2.015625 -3.835938 2.140625 -3.765625 C 2.285156 -3.648438 2.457031 -3.535156 2.65625 -3.421875 C 2.664062 -3.421875 2.675781 -3.414062 2.6875 -3.40625 C 2.695312 -3.414062 2.707031 -3.425781 2.71875 -3.4375 C 2.738281 -3.445312 2.753906 -3.457031 2.765625 -3.46875 C 3.085938 -3.75 3.414062 -4.023438 3.75 -4.296875 C 4.09375 -4.566406 4.4375 -4.820312 4.78125 -5.0625 C 4.863281 -5.132812 4.941406 -5.191406 5.015625 -5.234375 C 5.085938 -5.265625 5.144531 -5.28125 5.1875 -5.28125 C 5.257812 -5.28125 5.320312 -5.242188 5.375 -5.171875 C 5.40625 -5.097656 5.390625 -5.023438 5.328125 -4.953125 C 5.328125 -4.941406 5.320312 -4.929688 5.3125 -4.921875 C 5.3125 -4.921875 5.304688 -4.914062 5.296875 -4.90625 C 5.148438 -4.820312 5.007812 -4.726562 4.875 -4.625 C 4.75 -4.519531 4.617188 -4.410156 4.484375 -4.296875 Z M 3.15625 -1.921875 C 3.125 -2.085938 3.0625 -2.234375 2.96875 -2.359375 C 2.882812 -2.484375 2.78125 -2.601562 2.65625 -2.71875 C 2.625 -2.695312 2.601562 -2.679688 2.59375 -2.671875 C 2.3125 -2.378906 2.03125 -2.054688 1.75 -1.703125 C 1.46875 -1.347656 1.253906 -0.976562 1.109375 -0.59375 C 1.054688 -0.488281 1.015625 -0.382812 0.984375 -0.28125 C 0.953125 -0.175781 0.925781 -0.0664062 0.90625 0.046875 C 0.882812 0.191406 0.894531 0.320312 0.9375 0.4375 C 1 0.625 1.117188 0.71875 1.296875 0.71875 C 1.304688 0.71875 1.320312 0.71875 1.34375 0.71875 C 1.375 0.71875 1.398438 0.710938 1.421875 0.703125 C 1.484375 0.691406 1.535156 0.671875 1.578125 0.640625 C 1.921875 0.441406 2.226562 0.183594 2.5 -0.125 C 2.769531 -0.4375 2.96875 -0.78125 3.09375 -1.15625 C 3.175781 -1.414062 3.195312 -1.671875 3.15625 -1.921875 Z M 3.15625 -1.921875 "/></g></g></g></svg>