<svg xmlns="http://www.w3.org/2000/svg" xmlns:xlink="http://www.w3.org/1999/xlink" width="1080" zoomAndPan="magnify" viewBox="0 0 810 262.499992" height="350" preserveAspectRatio="xMidYMid meet" version="1.0"><defs><g/><clipPath id="7188b0208a"><path d="M 0.214844 58 L 96 58 L 96 231 L 0.214844 231 Z M 0.214844 58 " clip-rule="nonzero"/></clipPath><clipPath id="d767b8e975"><rect x="0" width="773" y="0" height="262"/></clipPath></defs><g transform="matrix(1, 0, 0, 1, 19, 0)"><g clip-path="url(#d767b8e975)"><g clip-path="url(#7188b0208a)"><g fill="#000000" fill-opacity="1"><g transform="translate(9.443334, 193.126509)"><g><path d="M 74.34375 -134.375 C 78.957031 -134.375 81.992188 -132.796875 83.453125 -129.640625 C 84.921875 -126.484375 85.65625 -122.90625 85.65625 -118.90625 C 85.8125 -114.894531 85.65625 -110.890625 85.1875 -106.890625 C 84.726562 -102.890625 84.113281 -98.890625 83.34375 -94.890625 C 81.34375 -85.503906 79.109375 -76.113281 76.640625 -66.71875 C 74.179688 -57.332031 71.644531 -47.945312 69.03125 -38.5625 C 67.800781 -33.789062 65.992188 -28.171875 63.609375 -21.703125 C 61.222656 -15.234375 58.375 -8.570312 55.0625 -1.71875 C 51.75 5.125 48.015625 11.46875 43.859375 17.3125 C 39.703125 23.164062 35.125 27.9375 30.125 31.625 C 25.125 35.320312 19.851562 37.171875 14.3125 37.171875 C 12.625 37.171875 10.703125 36.941406 8.546875 36.484375 C 3.304688 34.941406 -0.539062 31.976562 -3 27.59375 C -5.46875 23.207031 -7.082031 18.550781 -7.84375 13.625 C -8.457031 8.851562 -8.609375 4.160156 -8.296875 -0.453125 C -7.992188 -5.078125 -7.304688 -9.695312 -6.234375 -14.3125 C -5.003906 -18.78125 -3.503906 -23.164062 -1.734375 -27.46875 C 0.0351562 -31.78125 2.078125 -35.9375 4.390625 -39.9375 C 5.460938 -41.9375 7.078125 -44.550781 9.234375 -47.78125 C 11.390625 -51.019531 13.8125 -54.289062 16.5 -57.59375 C 19.195312 -60.90625 22.007812 -63.675781 24.9375 -65.90625 C 27.863281 -68.144531 30.554688 -69.265625 33.015625 -69.265625 C 37.328125 -69.265625 39.867188 -66.722656 40.640625 -61.640625 C 40.941406 -60.097656 41.015625 -58.597656 40.859375 -57.140625 C 40.710938 -55.679688 40.484375 -54.179688 40.171875 -52.640625 C 39.554688 -47.867188 38.285156 -42.441406 36.359375 -36.359375 C 34.441406 -30.285156 32.328125 -24.320312 30.015625 -18.46875 C 27.703125 -12.625 25.546875 -7.46875 23.546875 -3 C 23.390625 -2.382812 23.15625 -1.804688 22.84375 -1.265625 C 22.539062 -0.734375 22.238281 -0.15625 21.9375 0.46875 C 21.46875 1.226562 20.773438 1.992188 19.859375 2.765625 C 19.546875 2.921875 19.234375 3.035156 18.921875 3.109375 C 18.617188 3.191406 18.316406 3.234375 18.015625 3.234375 C 16.003906 3.234375 14.847656 2 14.546875 -0.46875 C 14.390625 -1.695312 14.539062 -3.003906 15 -4.390625 C 15.625 -6.390625 16.242188 -8.3125 16.859375 -10.15625 C 17.472656 -12 18.085938 -13.925781 18.703125 -15.9375 C 20.390625 -21.007812 22.078125 -26.082031 23.765625 -31.15625 C 25.460938 -36.238281 27.082031 -41.398438 28.625 -46.640625 C 29.238281 -48.484375 29.816406 -50.328125 30.359375 -52.171875 C 30.898438 -54.023438 31.25 -55.953125 31.40625 -57.953125 C 31.40625 -58.566406 31.476562 -59.101562 31.625 -59.5625 C 31.164062 -59.40625 30.628906 -59.175781 30.015625 -58.875 C 25.398438 -55.175781 21.164062 -50.554688 17.3125 -45.015625 C 13.46875 -39.472656 10.160156 -33.625 7.390625 -27.46875 C 4.617188 -21.3125 2.539062 -15.390625 1.15625 -9.703125 C 0.382812 -5.847656 -0.078125 -1.921875 -0.234375 2.078125 C -0.390625 6.078125 -0.00390625 10.078125 0.921875 14.078125 C 1.234375 15.160156 1.539062 16.160156 1.84375 17.078125 C 2.15625 18.003906 2.460938 18.929688 2.765625 19.859375 C 4.617188 23.859375 7.625 26.085938 11.78125 26.546875 C 13.925781 26.546875 15.65625 26.390625 16.96875 26.078125 C 18.28125 25.773438 19.9375 25.085938 21.9375 24.015625 C 25.78125 21.398438 29.429688 17.742188 32.890625 13.046875 C 36.359375 8.347656 39.515625 3.191406 42.359375 -2.421875 C 45.210938 -8.035156 47.710938 -13.613281 49.859375 -19.15625 C 52.015625 -24.695312 53.710938 -29.546875 54.953125 -33.703125 C 56.335938 -38.472656 57.644531 -43.28125 58.875 -48.125 C 60.101562 -52.976562 61.332031 -57.789062 62.5625 -62.5625 C 63.800781 -67.945312 65.109375 -73.410156 66.484375 -78.953125 C 67.867188 -84.492188 69.179688 -89.957031 70.421875 -95.34375 C 71.335938 -99.195312 72.140625 -103.007812 72.828125 -106.78125 C 73.523438 -110.550781 74.03125 -114.359375 74.34375 -118.203125 C 74.34375 -118.972656 74.34375 -119.664062 74.34375 -120.28125 C 74.34375 -120.894531 74.421875 -121.515625 74.578125 -122.140625 C 74.578125 -122.441406 74.535156 -122.707031 74.453125 -122.9375 C 74.378906 -123.164062 74.34375 -123.4375 74.34375 -123.75 C 74.1875 -123.75 73.992188 -123.75 73.765625 -123.75 C 73.535156 -123.75 73.265625 -123.75 72.953125 -123.75 C 68.796875 -123.132812 64.332031 -121.671875 59.5625 -119.359375 C 54.789062 -117.054688 50.632812 -114.898438 47.09375 -112.890625 C 45.09375 -111.816406 43.050781 -110.664062 40.96875 -109.4375 C 38.894531 -108.207031 36.78125 -106.972656 34.625 -105.734375 C 33.707031 -105.429688 33.171875 -104.894531 33.015625 -104.125 C 32.703125 -103.050781 31.625 -102.515625 29.78125 -102.515625 C 28.707031 -102.515625 27.785156 -102.894531 27.015625 -103.65625 C 25.785156 -104.894531 25.320312 -106.585938 25.625 -108.734375 C 26.082031 -110.742188 27.160156 -112.363281 28.859375 -113.59375 C 35.171875 -117.59375 41.476562 -121.207031 47.78125 -124.4375 C 54.09375 -127.675781 60.710938 -130.523438 67.640625 -132.984375 C 70.109375 -133.753906 72.34375 -134.21875 74.34375 -134.375 Z M 74.34375 -134.375 "/></g></g></g></g><g fill="#000000" fill-opacity="1"><g transform="translate(88.173064, 193.126509)"><g><path d="M 81.953125 -35.328125 C 83.191406 -33.785156 83.347656 -32.398438 82.421875 -31.171875 C 81.960938 -30.242188 81.347656 -29.394531 80.578125 -28.625 C 78.878906 -27.082031 77.179688 -25.539062 75.484375 -24 C 73.796875 -22.46875 72.109375 -20.929688 70.421875 -19.390625 C 67.953125 -17.234375 65.445312 -15.113281 62.90625 -13.03125 C 60.375 -10.957031 57.796875 -8.847656 55.171875 -6.703125 C 53.328125 -5.160156 51.097656 -3.578125 48.484375 -1.953125 C 45.867188 -0.335938 43.328125 0.46875 40.859375 0.46875 C 37.472656 0.46875 35.085938 -0.722656 33.703125 -3.109375 C 32.316406 -5.503906 31.472656 -8.160156 31.171875 -11.078125 C 31.015625 -12.929688 31.015625 -14.78125 31.171875 -16.625 C 31.328125 -18.46875 31.476562 -20.3125 31.625 -22.15625 C 31.625 -22.3125 31.660156 -22.503906 31.734375 -22.734375 C 31.816406 -22.972656 31.859375 -23.164062 31.859375 -23.3125 C 31.859375 -23.3125 31.859375 -23.347656 31.859375 -23.421875 C 31.859375 -23.503906 31.78125 -23.625 31.625 -23.78125 C 31.476562 -23.625 31.328125 -23.46875 31.171875 -23.3125 C 31.015625 -23.164062 30.78125 -22.9375 30.46875 -22.625 C 28.78125 -20.625 27.007812 -18.660156 25.15625 -16.734375 C 23.3125 -14.816406 21.46875 -12.851562 19.625 -10.84375 C 18.550781 -9.613281 17.359375 -8.421875 16.046875 -7.265625 C 14.734375 -6.117188 13.3125 -5.082031 11.78125 -4.15625 C 10.695312 -3.382812 9.382812 -2.691406 7.84375 -2.078125 C 6.3125 -1.460938 4.851562 -1.15625 3.46875 -1.15625 C 3 -1.15625 2.570312 -1.191406 2.1875 -1.265625 C 1.800781 -1.347656 1.378906 -1.460938 0.921875 -1.609375 C -1.847656 -2.691406 -3.5 -4.5 -4.03125 -7.03125 C -4.570312 -9.570312 -4.84375 -12.078125 -4.84375 -14.546875 C -4.382812 -19.160156 -3.421875 -23.890625 -1.953125 -28.734375 C -0.492188 -33.585938 1.234375 -38.09375 3.234375 -42.25 C 3.535156 -42.5625 3.800781 -42.945312 4.03125 -43.40625 C 4.269531 -43.863281 4.46875 -44.328125 4.625 -44.796875 C 5.539062 -46.023438 6.691406 -46.640625 8.078125 -46.640625 C 8.390625 -46.640625 8.617188 -46.597656 8.765625 -46.515625 C 8.921875 -46.441406 9.078125 -46.40625 9.234375 -46.40625 C 11.078125 -45.789062 12 -44.40625 12 -42.25 C 11.851562 -41.320312 11.738281 -40.4375 11.65625 -39.59375 C 11.582031 -38.75 11.390625 -37.941406 11.078125 -37.171875 C 10.773438 -35.171875 10.351562 -33.285156 9.8125 -31.515625 C 9.269531 -29.742188 8.769531 -27.9375 8.3125 -26.09375 C 7.851562 -24.09375 7.46875 -22.128906 7.15625 -20.203125 C 6.851562 -18.273438 6.625 -16.3125 6.46875 -14.3125 C 6.3125 -14.007812 6.234375 -13.472656 6.234375 -12.703125 C 6.691406 -12.847656 7.226562 -13.078125 7.84375 -13.390625 C 11.082031 -15.390625 14.316406 -17.851562 17.546875 -20.78125 C 20.773438 -23.851562 23.851562 -27.082031 26.78125 -30.46875 C 29.707031 -33.863281 32.632812 -37.253906 35.5625 -40.640625 C 36.476562 -42.023438 37.476562 -43.253906 38.5625 -44.328125 C 39.476562 -46.023438 40.863281 -46.875 42.71875 -46.875 C 43.332031 -46.875 43.789062 -46.796875 44.09375 -46.640625 C 45.789062 -46.023438 46.789062 -44.789062 47.09375 -42.9375 C 47.09375 -41.863281 47.019531 -41.019531 46.875 -40.40625 C 46.5625 -38.40625 46.097656 -36.632812 45.484375 -35.09375 C 44.554688 -32.164062 43.785156 -29.238281 43.171875 -26.3125 C 42.554688 -23.394531 42.09375 -20.394531 41.78125 -17.3125 C 41.78125 -16.394531 41.816406 -15.472656 41.890625 -14.546875 C 41.972656 -13.617188 42.015625 -12.617188 42.015625 -11.546875 C 42.015625 -11.390625 42.050781 -11.15625 42.125 -10.84375 C 42.207031 -10.539062 42.25 -10.234375 42.25 -9.921875 C 43.945312 -10.691406 45.523438 -11.539062 46.984375 -12.46875 C 48.441406 -13.394531 49.941406 -14.394531 51.484375 -15.46875 C 53.796875 -17.3125 56.066406 -19.15625 58.296875 -21 C 60.523438 -22.851562 62.71875 -24.625 64.875 -26.3125 C 66.71875 -27.851562 68.5625 -29.316406 70.40625 -30.703125 C 72.257812 -32.085938 74.109375 -33.550781 75.953125 -35.09375 C 76.265625 -35.40625 76.570312 -35.632812 76.875 -35.78125 C 77.1875 -35.9375 77.5 -36.09375 77.8125 -36.25 C 78.113281 -36.40625 78.570312 -36.484375 79.1875 -36.484375 C 80.269531 -36.484375 81.191406 -36.097656 81.953125 -35.328125 Z M 81.953125 -35.328125 "/></g></g></g><g fill="#000000" fill-opacity="1"><g transform="translate(157.667642, 193.126509)"><g><path d="M 62.34375 -27.25 C 63.875 -27.25 65.101562 -26.476562 66.03125 -24.9375 C 66.800781 -23.394531 66.644531 -22.007812 65.5625 -20.78125 C 65.414062 -20.625 65.222656 -20.429688 64.984375 -20.203125 C 64.753906 -19.972656 64.488281 -19.703125 64.1875 -19.390625 C 62.332031 -18.160156 60.519531 -16.890625 58.75 -15.578125 C 56.988281 -14.273438 55.179688 -12.929688 53.328125 -11.546875 C 49.023438 -8.617188 44.332031 -5.691406 39.25 -2.765625 C 37.707031 -1.992188 36.164062 -1.335938 34.625 -0.796875 C 33.09375 -0.265625 31.476562 0 29.78125 0 C 25.625 -0.3125 23.082031 -2.546875 22.15625 -6.703125 C 22.007812 -7.316406 21.894531 -7.890625 21.8125 -8.421875 C 21.738281 -8.960938 21.703125 -9.539062 21.703125 -10.15625 C 21.546875 -10.3125 21.46875 -10.695312 21.46875 -11.3125 C 21.3125 -11.15625 21.117188 -11 20.890625 -10.84375 C 20.660156 -10.695312 20.46875 -10.546875 20.3125 -10.390625 C 19.082031 -9.460938 17.890625 -8.535156 16.734375 -7.609375 C 15.578125 -6.691406 14.382812 -5.847656 13.15625 -5.078125 C 12.082031 -4.460938 10.851562 -3.804688 9.46875 -3.109375 C 8.082031 -2.421875 6.773438 -2.078125 5.546875 -2.078125 C 1.535156 -2.078125 -0.925781 -4.234375 -1.84375 -8.546875 C -2.3125 -10.390625 -2.390625 -12.390625 -2.078125 -14.546875 C -1.148438 -20.546875 1.078125 -26.703125 4.609375 -33.015625 C 8.148438 -39.328125 12 -44.5625 16.15625 -48.71875 C 17.238281 -49.488281 18.28125 -50.140625 19.28125 -50.671875 C 20.28125 -51.210938 21.394531 -51.484375 22.625 -51.484375 C 24.78125 -51.484375 26.703125 -50.484375 28.390625 -48.484375 C 29.628906 -46.640625 30.320312 -44.5625 30.46875 -42.25 C 30.78125 -38.25 30.472656 -34.476562 29.546875 -30.9375 C 29.546875 -30.320312 29.394531 -29.707031 29.09375 -29.09375 C 28.9375 -28.007812 28.664062 -27.003906 28.28125 -26.078125 C 27.894531 -25.160156 27.316406 -24.316406 26.546875 -23.546875 C 26.703125 -23.390625 26.9375 -23.3125 27.25 -23.3125 C 29.394531 -22.394531 30.703125 -20.78125 31.171875 -18.46875 C 31.328125 -17.695312 31.40625 -16.890625 31.40625 -16.046875 C 31.40625 -15.203125 31.40625 -14.394531 31.40625 -13.625 C 31.40625 -13.15625 31.40625 -12.691406 31.40625 -12.234375 C 31.40625 -11.773438 31.40625 -11.238281 31.40625 -10.625 C 32.320312 -10.925781 32.78125 -11.078125 32.78125 -11.078125 C 33.550781 -11.546875 34.359375 -11.96875 35.203125 -12.34375 C 36.054688 -12.726562 36.863281 -13.15625 37.625 -13.625 C 38.394531 -13.925781 39.125 -14.304688 39.8125 -14.765625 C 40.507812 -15.234375 41.164062 -15.695312 41.78125 -16.15625 C 42.863281 -16.925781 44.632812 -18.117188 47.09375 -19.734375 C 49.5625 -21.347656 52.0625 -22.847656 54.59375 -24.234375 C 57.132812 -25.617188 59.023438 -26.46875 60.265625 -26.78125 C 61.179688 -27.09375 61.875 -27.25 62.34375 -27.25 Z M 23.09375 -37.171875 C 23.09375 -38.554688 22.859375 -40.171875 22.390625 -42.015625 C 21.929688 -41.398438 21.546875 -40.898438 21.234375 -40.515625 C 20.929688 -40.128906 20.625 -39.707031 20.3125 -39.25 C 18.007812 -36.019531 15.816406 -32.363281 13.734375 -28.28125 C 11.660156 -24.195312 10.160156 -20.15625 9.234375 -16.15625 C 9.234375 -16.007812 9.191406 -15.78125 9.109375 -15.46875 C 9.035156 -15.15625 9 -14.847656 9 -14.546875 C 11.46875 -16.085938 13.851562 -17.625 16.15625 -19.15625 C 18.46875 -20.695312 20.851562 -22.007812 23.3125 -23.09375 C 22.394531 -23.851562 21.859375 -24.695312 21.703125 -25.625 C 21.546875 -26.550781 21.546875 -27.472656 21.703125 -28.390625 C 21.703125 -28.703125 21.738281 -28.9375 21.8125 -29.09375 C 21.894531 -29.25 21.9375 -29.398438 21.9375 -29.546875 C 22.238281 -30.785156 22.503906 -32.054688 22.734375 -33.359375 C 22.972656 -34.671875 23.09375 -35.941406 23.09375 -37.171875 Z M 23.09375 -37.171875 "/></g></g></g><g fill="#000000" fill-opacity="1"><g transform="translate(217.927048, 193.126509)"><g><path d="M 58.40625 -30.703125 C 59.644531 -29.628906 60.03125 -28.320312 59.5625 -26.78125 C 59.40625 -26.320312 59.171875 -25.859375 58.859375 -25.390625 C 58.554688 -24.929688 58.253906 -24.472656 57.953125 -24.015625 C 56.410156 -22.472656 54.90625 -20.96875 53.4375 -19.5 C 51.976562 -18.039062 50.484375 -16.539062 48.953125 -15 C 47.253906 -13.3125 45.40625 -11.617188 43.40625 -9.921875 C 41.40625 -8.234375 39.328125 -6.773438 37.171875 -5.546875 C 35.472656 -4.929688 34.007812 -4.625 32.78125 -4.625 C 30.164062 -4.769531 28.320312 -6.148438 27.25 -8.765625 C 26.78125 -9.691406 26.46875 -10.613281 26.3125 -11.53125 C 26.164062 -12.457031 26.09375 -13.304688 26.09375 -14.078125 C 25.9375 -16.234375 25.972656 -18.390625 26.203125 -20.546875 C 26.429688 -22.703125 26.703125 -24.859375 27.015625 -27.015625 C 27.316406 -28.554688 27.617188 -30.09375 27.921875 -31.625 C 28.234375 -33.164062 28.46875 -34.707031 28.625 -36.25 C 28.625 -36.863281 28.703125 -37.398438 28.859375 -37.859375 C 28.398438 -37.554688 27.863281 -37.25 27.25 -36.9375 C 23.394531 -34.164062 19.890625 -30.972656 16.734375 -27.359375 C 13.578125 -23.742188 10.613281 -19.9375 7.84375 -15.9375 C 7.382812 -15.3125 6.882812 -14.648438 6.34375 -13.953125 C 5.8125 -13.265625 5.238281 -12.539062 4.625 -11.78125 C 4.3125 -11.3125 3.691406 -10.617188 2.765625 -9.703125 C 1.992188 -9.078125 1.070312 -8.765625 0 -8.765625 C -2.925781 -8.765625 -4.617188 -10.226562 -5.078125 -13.15625 C -5.390625 -14.382812 -5.390625 -15.691406 -5.078125 -17.078125 C -4.304688 -21.390625 -3.378906 -25.582031 -2.296875 -29.65625 C -1.222656 -33.738281 0.078125 -37.78125 1.609375 -41.78125 C 1.765625 -42.09375 1.921875 -42.398438 2.078125 -42.703125 C 2.234375 -43.015625 2.390625 -43.25 2.546875 -43.40625 C 3.304688 -44.332031 4.457031 -44.796875 6 -44.796875 C 7.539062 -44.640625 8.460938 -43.789062 8.765625 -42.25 C 8.921875 -41.632812 9 -41.054688 9 -40.515625 C 9 -39.972656 9 -39.394531 9 -38.78125 C 8.84375 -37.863281 8.6875 -36.90625 8.53125 -35.90625 C 8.382812 -34.90625 8.15625 -33.941406 7.84375 -33.015625 C 7.695312 -32.398438 7.582031 -31.785156 7.5 -31.171875 C 7.425781 -30.554688 7.3125 -29.941406 7.15625 -29.328125 C 7.15625 -29.015625 7.078125 -28.628906 6.921875 -28.171875 C 7.234375 -28.472656 7.503906 -28.738281 7.734375 -28.96875 C 7.960938 -29.207031 8.15625 -29.398438 8.3125 -29.546875 C 10.925781 -32.316406 13.65625 -35.007812 16.5 -37.625 C 19.351562 -40.25 22.394531 -42.5625 25.625 -44.5625 C 26.238281 -44.863281 26.816406 -45.09375 27.359375 -45.25 C 27.898438 -45.40625 28.476562 -45.5625 29.09375 -45.71875 C 29.394531 -45.71875 29.660156 -45.753906 29.890625 -45.828125 C 30.128906 -45.898438 30.320312 -45.9375 30.46875 -45.9375 C 33.238281 -45.9375 35.007812 -44.859375 35.78125 -42.703125 C 36.550781 -40.554688 36.9375 -38.40625 36.9375 -36.25 C 36.78125 -34.40625 36.664062 -32.597656 36.59375 -30.828125 C 36.519531 -29.054688 36.40625 -27.320312 36.25 -25.625 C 36.09375 -23.9375 35.972656 -22.164062 35.890625 -20.3125 C 35.816406 -18.46875 35.78125 -16.695312 35.78125 -15 C 36.394531 -15.3125 36.78125 -15.546875 36.9375 -15.703125 C 39.09375 -17.085938 41.019531 -18.550781 42.71875 -20.09375 C 44.5625 -21.78125 46.367188 -23.394531 48.140625 -24.9375 C 49.910156 -26.476562 51.640625 -28.015625 53.328125 -29.546875 C 53.484375 -30.015625 53.789062 -30.320312 54.25 -30.46875 C 54.863281 -31.09375 55.632812 -31.40625 56.5625 -31.40625 C 57.332031 -31.40625 57.945312 -31.171875 58.40625 -30.703125 Z M 58.40625 -30.703125 "/></g></g></g><g fill="#000000" fill-opacity="1"><g transform="translate(270.33657, 193.126509)"><g/></g><g transform="translate(342.37081, 193.126509)"><g><path d="M 133.671875 -159.078125 C 133.984375 -158.460938 134.097656 -157.726562 134.015625 -156.875 C 133.941406 -156.03125 133.828125 -155.222656 133.671875 -154.453125 C 133.054688 -152.609375 132.519531 -150.722656 132.0625 -148.796875 C 131.601562 -146.867188 131.0625 -144.984375 130.4375 -143.140625 C 116.894531 -92.191406 108.738281 -40.707031 105.96875 11.3125 C 105.8125 15.78125 105.65625 20.242188 105.5 24.703125 C 105.351562 29.171875 105.125 33.632812 104.8125 38.09375 C 104.8125 38.707031 104.8125 39.285156 104.8125 39.828125 C 104.8125 40.367188 104.8125 40.945312 104.8125 41.5625 C 104.8125 41.863281 104.8125 42.207031 104.8125 42.59375 C 104.8125 42.976562 104.8125 43.328125 104.8125 43.640625 C 104.351562 45.484375 103.273438 46.710938 101.578125 47.328125 C 101.273438 47.484375 100.816406 47.5625 100.203125 47.5625 C 98.660156 47.5625 97.460938 47.019531 96.609375 45.9375 C 95.765625 44.863281 95.191406 43.554688 94.890625 42.015625 C 94.734375 41.097656 94.613281 40.210938 94.53125 39.359375 C 94.457031 38.515625 94.347656 37.628906 94.203125 36.703125 C 94.046875 32.546875 94.003906 28.425781 94.078125 24.34375 C 94.160156 20.269531 94.273438 16.234375 94.421875 12.234375 C 94.578125 7.460938 94.769531 2.734375 95 -1.953125 C 95.226562 -6.648438 95.421875 -11.3125 95.578125 -15.9375 C 96.347656 -31.9375 98.117188 -47.941406 100.890625 -63.953125 C 103.660156 -79.960938 106.894531 -95.738281 110.59375 -111.28125 C 110.59375 -111.59375 110.628906 -111.863281 110.703125 -112.09375 C 110.773438 -112.320312 110.8125 -112.515625 110.8125 -112.671875 C 110.507812 -112.515625 110.203125 -112.128906 109.890625 -111.515625 C 104.347656 -99.816406 98.84375 -88.15625 93.375 -76.53125 C 87.914062 -64.914062 82.34375 -53.257812 76.65625 -41.5625 C 74.957031 -37.863281 73.222656 -34.164062 71.453125 -30.46875 C 69.679688 -26.78125 67.644531 -23.242188 65.34375 -19.859375 C 64.414062 -18.628906 63.335938 -17.550781 62.109375 -16.625 C 60.566406 -15.539062 59.023438 -15 57.484375 -15 C 55.023438 -15 53.101562 -16.078125 51.71875 -18.234375 C 50.332031 -19.929688 49.367188 -22.316406 48.828125 -25.390625 C 48.285156 -28.472656 47.941406 -31.015625 47.796875 -33.015625 C 47.328125 -38.710938 47.09375 -44.367188 47.09375 -49.984375 C 47.09375 -55.597656 47.171875 -61.175781 47.328125 -66.71875 C 47.640625 -71.644531 47.988281 -76.609375 48.375 -81.609375 C 48.757812 -86.617188 49.101562 -91.507812 49.40625 -96.28125 C 49.40625 -96.894531 49.328125 -97.351562 49.171875 -97.65625 C 49.023438 -97.5 48.910156 -97.265625 48.828125 -96.953125 C 48.753906 -96.648438 48.640625 -96.347656 48.484375 -96.046875 C 46.640625 -89.734375 44.789062 -83.382812 42.9375 -77 C 41.09375 -70.613281 39.320312 -64.265625 37.625 -57.953125 C 35.320312 -50.097656 33.320312 -42.164062 31.625 -34.15625 C 29.9375 -26.15625 28.320312 -18.15625 26.78125 -10.15625 C 26.007812 -6.15625 25.160156 -2.117188 24.234375 1.953125 C 23.316406 6.035156 22.472656 10.15625 21.703125 14.3125 C 21.546875 14.625 21.46875 15.164062 21.46875 15.9375 C 21.3125 17.78125 20.3125 18.703125 18.46875 18.703125 C 17.851562 18.703125 17.390625 18.625 17.078125 18.46875 C 16.160156 18.164062 15.394531 17.242188 14.78125 15.703125 C 14.164062 13.847656 13.929688 12 14.078125 10.15625 C 14.078125 8.15625 14.226562 6.15625 14.53125 4.15625 C 14.84375 2.15625 15.15625 0.15625 15.46875 -1.84375 C 19.46875 -24.320312 24.738281 -46.523438 31.28125 -68.453125 C 37.820312 -90.390625 44.710938 -112.054688 51.953125 -133.453125 C 52.253906 -134.210938 52.597656 -135.015625 52.984375 -135.859375 C 53.367188 -136.710938 53.71875 -137.523438 54.03125 -138.296875 C 54.175781 -138.753906 54.398438 -139.175781 54.703125 -139.5625 C 55.015625 -139.945312 55.25 -140.296875 55.40625 -140.609375 C 56.332031 -141.679688 57.488281 -142.21875 58.875 -142.21875 C 60.5625 -142.21875 61.867188 -141.445312 62.796875 -139.90625 C 63.109375 -139.445312 63.335938 -138.984375 63.484375 -138.515625 C 63.640625 -138.054688 63.796875 -137.597656 63.953125 -137.140625 C 64.265625 -135.910156 64.34375 -134.71875 64.1875 -133.5625 C 64.03125 -132.40625 63.875 -131.210938 63.71875 -129.984375 C 63.5625 -127.671875 63.328125 -125.359375 63.015625 -123.046875 C 62.710938 -120.742188 62.410156 -118.4375 62.109375 -116.125 C 61.179688 -108.125 60.367188 -100.082031 59.671875 -92 C 58.984375 -83.914062 58.488281 -75.796875 58.1875 -67.640625 C 57.875 -62.410156 57.71875 -57.101562 57.71875 -51.71875 C 57.71875 -46.332031 57.796875 -40.945312 57.953125 -35.5625 C 58.109375 -34.476562 58.222656 -33.28125 58.296875 -31.96875 C 58.367188 -30.664062 58.484375 -29.398438 58.640625 -28.171875 C 58.796875 -28.015625 58.875 -27.707031 58.875 -27.25 C 59.332031 -27.394531 59.71875 -27.773438 60.03125 -28.390625 C 60.800781 -29.628906 61.609375 -30.898438 62.453125 -32.203125 C 63.296875 -33.515625 64.023438 -34.863281 64.640625 -36.25 C 67.109375 -40.707031 69.492188 -45.242188 71.796875 -49.859375 C 74.109375 -54.484375 76.421875 -59.023438 78.734375 -63.484375 C 86.734375 -79.191406 94.65625 -94.96875 102.5 -110.8125 C 110.351562 -126.664062 117.820312 -142.675781 124.90625 -158.84375 C 125.363281 -159.769531 125.976562 -160.613281 126.75 -161.375 C 127.519531 -162.144531 128.441406 -162.53125 129.515625 -162.53125 C 129.984375 -162.53125 130.367188 -162.457031 130.671875 -162.3125 C 132.210938 -161.84375 133.210938 -160.765625 133.671875 -159.078125 Z M 133.671875 -159.078125 "/></g></g></g><g fill="#000000" fill-opacity="1"><g transform="translate(462.427864, 193.126509)"><g><path d="M 62.34375 -27.25 C 63.875 -27.25 65.101562 -26.476562 66.03125 -24.9375 C 66.800781 -23.394531 66.644531 -22.007812 65.5625 -20.78125 C 65.414062 -20.625 65.222656 -20.429688 64.984375 -20.203125 C 64.753906 -19.972656 64.488281 -19.703125 64.1875 -19.390625 C 62.332031 -18.160156 60.519531 -16.890625 58.75 -15.578125 C 56.988281 -14.273438 55.179688 -12.929688 53.328125 -11.546875 C 49.023438 -8.617188 44.332031 -5.691406 39.25 -2.765625 C 37.707031 -1.992188 36.164062 -1.335938 34.625 -0.796875 C 33.09375 -0.265625 31.476562 0 29.78125 0 C 25.625 -0.3125 23.082031 -2.546875 22.15625 -6.703125 C 22.007812 -7.316406 21.894531 -7.890625 21.8125 -8.421875 C 21.738281 -8.960938 21.703125 -9.539062 21.703125 -10.15625 C 21.546875 -10.3125 21.46875 -10.695312 21.46875 -11.3125 C 21.3125 -11.15625 21.117188 -11 20.890625 -10.84375 C 20.660156 -10.695312 20.46875 -10.546875 20.3125 -10.390625 C 19.082031 -9.460938 17.890625 -8.535156 16.734375 -7.609375 C 15.578125 -6.691406 14.382812 -5.847656 13.15625 -5.078125 C 12.082031 -4.460938 10.851562 -3.804688 9.46875 -3.109375 C 8.082031 -2.421875 6.773438 -2.078125 5.546875 -2.078125 C 1.535156 -2.078125 -0.925781 -4.234375 -1.84375 -8.546875 C -2.3125 -10.390625 -2.390625 -12.390625 -2.078125 -14.546875 C -1.148438 -20.546875 1.078125 -26.703125 4.609375 -33.015625 C 8.148438 -39.328125 12 -44.5625 16.15625 -48.71875 C 17.238281 -49.488281 18.28125 -50.140625 19.28125 -50.671875 C 20.28125 -51.210938 21.394531 -51.484375 22.625 -51.484375 C 24.78125 -51.484375 26.703125 -50.484375 28.390625 -48.484375 C 29.628906 -46.640625 30.320312 -44.5625 30.46875 -42.25 C 30.78125 -38.25 30.472656 -34.476562 29.546875 -30.9375 C 29.546875 -30.320312 29.394531 -29.707031 29.09375 -29.09375 C 28.9375 -28.007812 28.664062 -27.003906 28.28125 -26.078125 C 27.894531 -25.160156 27.316406 -24.316406 26.546875 -23.546875 C 26.703125 -23.390625 26.9375 -23.3125 27.25 -23.3125 C 29.394531 -22.394531 30.703125 -20.78125 31.171875 -18.46875 C 31.328125 -17.695312 31.40625 -16.890625 31.40625 -16.046875 C 31.40625 -15.203125 31.40625 -14.394531 31.40625 -13.625 C 31.40625 -13.15625 31.40625 -12.691406 31.40625 -12.234375 C 31.40625 -11.773438 31.40625 -11.238281 31.40625 -10.625 C 32.320312 -10.925781 32.78125 -11.078125 32.78125 -11.078125 C 33.550781 -11.546875 34.359375 -11.96875 35.203125 -12.34375 C 36.054688 -12.726562 36.863281 -13.15625 37.625 -13.625 C 38.394531 -13.925781 39.125 -14.304688 39.8125 -14.765625 C 40.507812 -15.234375 41.164062 -15.695312 41.78125 -16.15625 C 42.863281 -16.925781 44.632812 -18.117188 47.09375 -19.734375 C 49.5625 -21.347656 52.0625 -22.847656 54.59375 -24.234375 C 57.132812 -25.617188 59.023438 -26.46875 60.265625 -26.78125 C 61.179688 -27.09375 61.875 -27.25 62.34375 -27.25 Z M 23.09375 -37.171875 C 23.09375 -38.554688 22.859375 -40.171875 22.390625 -42.015625 C 21.929688 -41.398438 21.546875 -40.898438 21.234375 -40.515625 C 20.929688 -40.128906 20.625 -39.707031 20.3125 -39.25 C 18.007812 -36.019531 15.816406 -32.363281 13.734375 -28.28125 C 11.660156 -24.195312 10.160156 -20.15625 9.234375 -16.15625 C 9.234375 -16.007812 9.191406 -15.78125 9.109375 -15.46875 C 9.035156 -15.15625 9 -14.847656 9 -14.546875 C 11.46875 -16.085938 13.851562 -17.625 16.15625 -19.15625 C 18.46875 -20.695312 20.851562 -22.007812 23.3125 -23.09375 C 22.394531 -23.851562 21.859375 -24.695312 21.703125 -25.625 C 21.546875 -26.550781 21.546875 -27.472656 21.703125 -28.390625 C 21.703125 -28.703125 21.738281 -28.9375 21.8125 -29.09375 C 21.894531 -29.25 21.9375 -29.398438 21.9375 -29.546875 C 22.238281 -30.785156 22.503906 -32.054688 22.734375 -33.359375 C 22.972656 -34.671875 23.09375 -35.941406 23.09375 -37.171875 Z M 23.09375 -37.171875 "/></g></g></g><g fill="#000000" fill-opacity="1"><g transform="translate(522.68727, 193.126509)"><g><path d="M 58.40625 -30.703125 C 59.644531 -29.628906 60.03125 -28.320312 59.5625 -26.78125 C 59.40625 -26.320312 59.171875 -25.859375 58.859375 -25.390625 C 58.554688 -24.929688 58.253906 -24.472656 57.953125 -24.015625 C 56.410156 -22.472656 54.90625 -20.96875 53.4375 -19.5 C 51.976562 -18.039062 50.484375 -16.539062 48.953125 -15 C 47.253906 -13.3125 45.40625 -11.617188 43.40625 -9.921875 C 41.40625 -8.234375 39.328125 -6.773438 37.171875 -5.546875 C 35.472656 -4.929688 34.007812 -4.625 32.78125 -4.625 C 30.164062 -4.769531 28.320312 -6.148438 27.25 -8.765625 C 26.78125 -9.691406 26.46875 -10.613281 26.3125 -11.53125 C 26.164062 -12.457031 26.09375 -13.304688 26.09375 -14.078125 C 25.9375 -16.234375 25.972656 -18.390625 26.203125 -20.546875 C 26.429688 -22.703125 26.703125 -24.859375 27.015625 -27.015625 C 27.316406 -28.554688 27.617188 -30.09375 27.921875 -31.625 C 28.234375 -33.164062 28.46875 -34.707031 28.625 -36.25 C 28.625 -36.863281 28.703125 -37.398438 28.859375 -37.859375 C 28.398438 -37.554688 27.863281 -37.25 27.25 -36.9375 C 23.394531 -34.164062 19.890625 -30.972656 16.734375 -27.359375 C 13.578125 -23.742188 10.613281 -19.9375 7.84375 -15.9375 C 7.382812 -15.3125 6.882812 -14.648438 6.34375 -13.953125 C 5.8125 -13.265625 5.238281 -12.539062 4.625 -11.78125 C 4.3125 -11.3125 3.691406 -10.617188 2.765625 -9.703125 C 1.992188 -9.078125 1.070312 -8.765625 0 -8.765625 C -2.925781 -8.765625 -4.617188 -10.226562 -5.078125 -13.15625 C -5.390625 -14.382812 -5.390625 -15.691406 -5.078125 -17.078125 C -4.304688 -21.390625 -3.378906 -25.582031 -2.296875 -29.65625 C -1.222656 -33.738281 0.078125 -37.78125 1.609375 -41.78125 C 1.765625 -42.09375 1.921875 -42.398438 2.078125 -42.703125 C 2.234375 -43.015625 2.390625 -43.25 2.546875 -43.40625 C 3.304688 -44.332031 4.457031 -44.796875 6 -44.796875 C 7.539062 -44.640625 8.460938 -43.789062 8.765625 -42.25 C 8.921875 -41.632812 9 -41.054688 9 -40.515625 C 9 -39.972656 9 -39.394531 9 -38.78125 C 8.84375 -37.863281 8.6875 -36.90625 8.53125 -35.90625 C 8.382812 -34.90625 8.15625 -33.941406 7.84375 -33.015625 C 7.695312 -32.398438 7.582031 -31.785156 7.5 -31.171875 C 7.425781 -30.554688 7.3125 -29.941406 7.15625 -29.328125 C 7.15625 -29.015625 7.078125 -28.628906 6.921875 -28.171875 C 7.234375 -28.472656 7.503906 -28.738281 7.734375 -28.96875 C 7.960938 -29.207031 8.15625 -29.398438 8.3125 -29.546875 C 10.925781 -32.316406 13.65625 -35.007812 16.5 -37.625 C 19.351562 -40.25 22.394531 -42.5625 25.625 -44.5625 C 26.238281 -44.863281 26.816406 -45.09375 27.359375 -45.25 C 27.898438 -45.40625 28.476562 -45.5625 29.09375 -45.71875 C 29.394531 -45.71875 29.660156 -45.753906 29.890625 -45.828125 C 30.128906 -45.898438 30.320312 -45.9375 30.46875 -45.9375 C 33.238281 -45.9375 35.007812 -44.859375 35.78125 -42.703125 C 36.550781 -40.554688 36.9375 -38.40625 36.9375 -36.25 C 36.78125 -34.40625 36.664062 -32.597656 36.59375 -30.828125 C 36.519531 -29.054688 36.40625 -27.320312 36.25 -25.625 C 36.09375 -23.9375 35.972656 -22.164062 35.890625 -20.3125 C 35.816406 -18.46875 35.78125 -16.695312 35.78125 -15 C 36.394531 -15.3125 36.78125 -15.546875 36.9375 -15.703125 C 39.09375 -17.085938 41.019531 -18.550781 42.71875 -20.09375 C 44.5625 -21.78125 46.367188 -23.394531 48.140625 -24.9375 C 49.910156 -26.476562 51.640625 -28.015625 53.328125 -29.546875 C 53.484375 -30.015625 53.789062 -30.320312 54.25 -30.46875 C 54.863281 -31.09375 55.632812 -31.40625 56.5625 -31.40625 C 57.332031 -31.40625 57.945312 -31.171875 58.40625 -30.703125 Z M 58.40625 -30.703125 "/></g></g></g><g fill="#000000" fill-opacity="1"><g transform="translate(575.096776, 193.126509)"><g><path d="M 81.953125 -35.328125 C 83.191406 -33.785156 83.347656 -32.398438 82.421875 -31.171875 C 81.960938 -30.242188 81.347656 -29.394531 80.578125 -28.625 C 78.878906 -27.082031 77.179688 -25.539062 75.484375 -24 C 73.796875 -22.46875 72.109375 -20.929688 70.421875 -19.390625 C 67.953125 -17.234375 65.445312 -15.113281 62.90625 -13.03125 C 60.375 -10.957031 57.796875 -8.847656 55.171875 -6.703125 C 53.328125 -5.160156 51.097656 -3.578125 48.484375 -1.953125 C 45.867188 -0.335938 43.328125 0.46875 40.859375 0.46875 C 37.472656 0.46875 35.085938 -0.722656 33.703125 -3.109375 C 32.316406 -5.503906 31.472656 -8.160156 31.171875 -11.078125 C 31.015625 -12.929688 31.015625 -14.78125 31.171875 -16.625 C 31.328125 -18.46875 31.476562 -20.3125 31.625 -22.15625 C 31.625 -22.3125 31.660156 -22.503906 31.734375 -22.734375 C 31.816406 -22.972656 31.859375 -23.164062 31.859375 -23.3125 C 31.859375 -23.3125 31.859375 -23.347656 31.859375 -23.421875 C 31.859375 -23.503906 31.78125 -23.625 31.625 -23.78125 C 31.476562 -23.625 31.328125 -23.46875 31.171875 -23.3125 C 31.015625 -23.164062 30.78125 -22.9375 30.46875 -22.625 C 28.78125 -20.625 27.007812 -18.660156 25.15625 -16.734375 C 23.3125 -14.816406 21.46875 -12.851562 19.625 -10.84375 C 18.550781 -9.613281 17.359375 -8.421875 16.046875 -7.265625 C 14.734375 -6.117188 13.3125 -5.082031 11.78125 -4.15625 C 10.695312 -3.382812 9.382812 -2.691406 7.84375 -2.078125 C 6.3125 -1.460938 4.851562 -1.15625 3.46875 -1.15625 C 3 -1.15625 2.570312 -1.191406 2.1875 -1.265625 C 1.800781 -1.347656 1.378906 -1.460938 0.921875 -1.609375 C -1.847656 -2.691406 -3.5 -4.5 -4.03125 -7.03125 C -4.570312 -9.570312 -4.84375 -12.078125 -4.84375 -14.546875 C -4.382812 -19.160156 -3.421875 -23.890625 -1.953125 -28.734375 C -0.492188 -33.585938 1.234375 -38.09375 3.234375 -42.25 C 3.535156 -42.5625 3.800781 -42.945312 4.03125 -43.40625 C 4.269531 -43.863281 4.46875 -44.328125 4.625 -44.796875 C 5.539062 -46.023438 6.691406 -46.640625 8.078125 -46.640625 C 8.390625 -46.640625 8.617188 -46.597656 8.765625 -46.515625 C 8.921875 -46.441406 9.078125 -46.40625 9.234375 -46.40625 C 11.078125 -45.789062 12 -44.40625 12 -42.25 C 11.851562 -41.320312 11.738281 -40.4375 11.65625 -39.59375 C 11.582031 -38.75 11.390625 -37.941406 11.078125 -37.171875 C 10.773438 -35.171875 10.351562 -33.285156 9.8125 -31.515625 C 9.269531 -29.742188 8.769531 -27.9375 8.3125 -26.09375 C 7.851562 -24.09375 7.46875 -22.128906 7.15625 -20.203125 C 6.851562 -18.273438 6.625 -16.3125 6.46875 -14.3125 C 6.3125 -14.007812 6.234375 -13.472656 6.234375 -12.703125 C 6.691406 -12.847656 7.226562 -13.078125 7.84375 -13.390625 C 11.082031 -15.390625 14.316406 -17.851562 17.546875 -20.78125 C 20.773438 -23.851562 23.851562 -27.082031 26.78125 -30.46875 C 29.707031 -33.863281 32.632812 -37.253906 35.5625 -40.640625 C 36.476562 -42.023438 37.476562 -43.253906 38.5625 -44.328125 C 39.476562 -46.023438 40.863281 -46.875 42.71875 -46.875 C 43.332031 -46.875 43.789062 -46.796875 44.09375 -46.640625 C 45.789062 -46.023438 46.789062 -44.789062 47.09375 -42.9375 C 47.09375 -41.863281 47.019531 -41.019531 46.875 -40.40625 C 46.5625 -38.40625 46.097656 -36.632812 45.484375 -35.09375 C 44.554688 -32.164062 43.785156 -29.238281 43.171875 -26.3125 C 42.554688 -23.394531 42.09375 -20.394531 41.78125 -17.3125 C 41.78125 -16.394531 41.816406 -15.472656 41.890625 -14.546875 C 41.972656 -13.617188 42.015625 -12.617188 42.015625 -11.546875 C 42.015625 -11.390625 42.050781 -11.15625 42.125 -10.84375 C 42.207031 -10.539062 42.25 -10.234375 42.25 -9.921875 C 43.945312 -10.691406 45.523438 -11.539062 46.984375 -12.46875 C 48.441406 -13.394531 49.941406 -14.394531 51.484375 -15.46875 C 53.796875 -17.3125 56.066406 -19.15625 58.296875 -21 C 60.523438 -22.851562 62.71875 -24.625 64.875 -26.3125 C 66.71875 -27.851562 68.5625 -29.316406 70.40625 -30.703125 C 72.257812 -32.085938 74.109375 -33.550781 75.953125 -35.09375 C 76.265625 -35.40625 76.570312 -35.632812 76.875 -35.78125 C 77.1875 -35.9375 77.5 -36.09375 77.8125 -36.25 C 78.113281 -36.40625 78.570312 -36.484375 79.1875 -36.484375 C 80.269531 -36.484375 81.191406 -36.097656 81.953125 -35.328125 Z M 81.953125 -35.328125 "/></g></g></g><g fill="#000000" fill-opacity="1"><g transform="translate(652.210375, 193.126509)"><g><path d="M 38.09375 -27.703125 C 39.789062 -26.628906 40.175781 -25.09375 39.25 -23.09375 C 39.09375 -22.9375 38.972656 -22.738281 38.890625 -22.5 C 38.816406 -22.269531 38.707031 -22.003906 38.5625 -21.703125 C 38.40625 -21.546875 38.207031 -21.3125 37.96875 -21 C 37.738281 -20.695312 37.472656 -20.394531 37.171875 -20.09375 C 36.398438 -19.164062 35.59375 -18.273438 34.75 -17.421875 C 33.90625 -16.578125 33.097656 -15.769531 32.328125 -15 C 30.941406 -13.925781 29.515625 -12.773438 28.046875 -11.546875 C 26.585938 -10.316406 25.164062 -9.082031 23.78125 -7.84375 C 20.394531 -5.070312 16.546875 -2.992188 12.234375 -1.609375 C 11.003906 -1.304688 9.773438 -1.113281 8.546875 -1.03125 C 7.316406 -0.957031 6.082031 -0.921875 4.84375 -0.921875 C 3.3125 -1.234375 1.351562 -2.117188 -1.03125 -3.578125 C -3.425781 -5.035156 -4.625 -6.613281 -4.625 -8.3125 C -4.925781 -8.925781 -5.078125 -9.3125 -5.078125 -9.46875 C -5.390625 -10.539062 -5.617188 -11.691406 -5.765625 -12.921875 C -5.921875 -14.160156 -6 -15.316406 -6 -16.390625 C -6 -19.160156 -5.613281 -22.238281 -4.84375 -25.625 C -3.613281 -29.625 -2 -33.351562 0 -36.8125 C 2 -40.28125 4.460938 -43.476562 7.390625 -46.40625 C 8.304688 -47.175781 9.265625 -47.90625 10.265625 -48.59375 C 11.273438 -49.289062 12.316406 -49.945312 13.390625 -50.5625 C 14.160156 -50.863281 14.929688 -51.09375 15.703125 -51.25 C 16.472656 -51.40625 17.242188 -51.484375 18.015625 -51.484375 C 19.703125 -51.484375 21.160156 -51.210938 22.390625 -50.671875 C 23.617188 -50.140625 24.546875 -49.023438 25.171875 -47.328125 C 25.785156 -45.484375 25.859375 -43.484375 25.390625 -41.328125 C 24.316406 -36.398438 21.78125 -31.507812 17.78125 -26.65625 C 13.78125 -21.8125 9.625 -18.160156 5.3125 -15.703125 C 4.695312 -15.234375 4.46875 -14.691406 4.625 -14.078125 C 5.082031 -11.921875 6.003906 -10.84375 7.390625 -10.84375 C 8.003906 -10.84375 8.460938 -10.921875 8.765625 -11.078125 C 13.234375 -11.847656 17.695312 -13.925781 22.15625 -17.3125 C 26.625 -20.695312 30.398438 -23.929688 33.484375 -27.015625 C 34.242188 -27.785156 35.164062 -28.171875 36.25 -28.171875 C 37.019531 -28.171875 37.632812 -28.015625 38.09375 -27.703125 Z M 6.234375 -26.546875 C 6.078125 -26.085938 5.921875 -25.585938 5.765625 -25.046875 C 5.617188 -24.503906 5.46875 -24.003906 5.3125 -23.546875 C 5.613281 -23.546875 5.765625 -23.546875 5.765625 -23.546875 C 5.765625 -23.546875 5.84375 -23.546875 6 -23.546875 C 8.613281 -25.703125 10.882812 -28.007812 12.8125 -30.46875 C 14.738281 -32.9375 16.238281 -35.632812 17.3125 -38.5625 C 17.625 -39.175781 17.851562 -39.789062 18 -40.40625 C 18.15625 -41.019531 18.3125 -41.632812 18.46875 -42.25 C 18.46875 -42.5625 18.46875 -42.832031 18.46875 -43.0625 C 18.46875 -43.289062 18.46875 -43.554688 18.46875 -43.859375 C 18.007812 -43.554688 17.625 -43.328125 17.3125 -43.171875 C 17.007812 -43.015625 16.703125 -42.785156 16.390625 -42.484375 C 14.847656 -41.253906 13.691406 -40.019531 12.921875 -38.78125 C 11.390625 -36.9375 10.082031 -34.972656 9 -32.890625 C 7.925781 -30.816406 7.003906 -28.703125 6.234375 -26.546875 Z M 6.234375 -26.546875 "/></g></g></g><g fill="#000000" fill-opacity="1"><g transform="translate(686.149572, 193.126509)"><g><path d="M 78.03125 -147.296875 C 80.5 -147.296875 82.078125 -146.332031 82.765625 -144.40625 C 83.460938 -142.488281 83.8125 -140.53125 83.8125 -138.53125 C 83.8125 -132.375 82.304688 -125.5625 79.296875 -118.09375 C 76.296875 -110.625 72.375 -103.003906 67.53125 -95.234375 C 62.6875 -87.460938 57.414062 -79.84375 51.71875 -72.375 C 46.019531 -64.914062 40.476562 -58.066406 35.09375 -51.828125 C 29.707031 -45.597656 25.015625 -40.328125 21.015625 -36.015625 C 20.546875 -35.398438 20.003906 -34.859375 19.390625 -34.390625 C 18.773438 -33.929688 18.160156 -33.394531 17.546875 -32.78125 C 17.390625 -32.625 17.234375 -32.429688 17.078125 -32.203125 C 16.929688 -31.972656 16.859375 -31.707031 16.859375 -31.40625 C 16.085938 -28.007812 15.46875 -24.617188 15 -21.234375 C 14.539062 -17.847656 14.3125 -14.382812 14.3125 -10.84375 C 14.46875 -9.3125 14.660156 -7.773438 14.890625 -6.234375 C 15.117188 -4.691406 15.46875 -3.148438 15.9375 -1.609375 C 16.238281 -1.148438 16.503906 -0.6875 16.734375 -0.21875 C 16.960938 0.238281 17.15625 0.695312 17.3125 1.15625 C 18.082031 2.082031 18.851562 2.546875 19.625 2.546875 C 19.625 2.546875 19.660156 2.546875 19.734375 2.546875 C 19.816406 2.546875 19.9375 2.546875 20.09375 2.546875 C 22.394531 1.773438 24.625 0.925781 26.78125 0 C 28.9375 -0.925781 31.015625 -2.082031 33.015625 -3.46875 C 35.472656 -5 37.859375 -6.492188 40.171875 -7.953125 C 42.484375 -9.421875 44.789062 -10.925781 47.09375 -12.46875 C 47.40625 -12.625 47.675781 -12.773438 47.90625 -12.921875 C 48.132812 -13.078125 48.328125 -13.234375 48.484375 -13.390625 C 48.796875 -13.546875 49.179688 -13.625 49.640625 -13.625 C 50.554688 -13.625 51.398438 -13.238281 52.171875 -12.46875 C 53.253906 -11.382812 53.410156 -10.148438 52.640625 -8.765625 C 52.484375 -8.617188 52.054688 -8.117188 51.359375 -7.265625 C 50.671875 -6.421875 50.175781 -5.921875 49.875 -5.765625 C 46.945312 -3.617188 43.941406 -1.46875 40.859375 0.6875 C 37.785156 2.84375 34.707031 4.921875 31.625 6.921875 C 30.550781 7.535156 29.515625 8.113281 28.515625 8.65625 C 27.515625 9.195312 26.398438 9.695312 25.171875 10.15625 C 23.929688 10.769531 22.3125 11.234375 20.3125 11.546875 C 17.851562 11.546875 15.851562 11.351562 14.3125 10.96875 C 12.769531 10.582031 11.15625 9.3125 9.46875 7.15625 C 7.625 5 6.273438 2.035156 5.421875 -1.734375 C 4.578125 -5.503906 4.15625 -8.695312 4.15625 -11.3125 C 4.15625 -12.851562 4.191406 -14.390625 4.265625 -15.921875 C 4.347656 -17.460938 4.46875 -19.003906 4.625 -20.546875 C 4.625 -21.003906 4.695312 -21.46875 4.84375 -21.9375 C 3.925781 -21.625 3.46875 -21.46875 3.46875 -21.46875 C 3 -21.46875 2.570312 -21.425781 2.1875 -21.34375 C 1.800781 -21.269531 1.378906 -21.234375 0.921875 -21.234375 C -0.148438 -21.546875 -0.914062 -22.28125 -1.375 -23.4375 C -1.84375 -24.59375 -1.691406 -25.628906 -0.921875 -26.546875 C -0.617188 -26.859375 -0.390625 -27.015625 -0.234375 -27.015625 C 0.691406 -27.785156 1.613281 -28.59375 2.53125 -29.4375 C 3.457031 -30.28125 4.382812 -31.085938 5.3125 -31.859375 C 6.382812 -32.941406 7 -33.941406 7.15625 -34.859375 C 9.15625 -43.941406 12.347656 -53.832031 16.734375 -64.53125 C 21.117188 -75.226562 26.3125 -85.847656 32.3125 -96.390625 C 38.320312 -106.929688 44.828125 -116.550781 51.828125 -125.25 C 58.835938 -133.945312 65.957031 -140.757812 73.1875 -145.6875 C 73.957031 -146.300781 75.113281 -146.757812 76.65625 -147.0625 C 76.957031 -147.21875 77.414062 -147.296875 78.03125 -147.296875 Z M 77.34375 -134.828125 C 77.5 -135.753906 77.613281 -136.675781 77.6875 -137.59375 C 77.769531 -138.519531 77.734375 -139.523438 77.578125 -140.609375 C 77.109375 -140.296875 76.71875 -140.0625 76.40625 -139.90625 C 76.101562 -139.75 75.800781 -139.519531 75.5 -139.21875 C 66.875 -131.675781 59.097656 -122.785156 52.171875 -112.546875 C 45.242188 -102.316406 39.203125 -91.582031 34.046875 -80.34375 C 28.890625 -69.101562 24.46875 -58.097656 20.78125 -47.328125 C 21.238281 -47.484375 21.625 -47.710938 21.9375 -48.015625 C 23.007812 -49.253906 24.046875 -50.410156 25.046875 -51.484375 C 26.046875 -52.554688 27.007812 -53.632812 27.9375 -54.71875 C 32.25 -59.332031 37.054688 -64.910156 42.359375 -71.453125 C 47.671875 -77.992188 52.863281 -84.957031 57.9375 -92.34375 C 63.019531 -99.738281 67.332031 -107.128906 70.875 -114.515625 C 74.414062 -121.898438 76.570312 -128.671875 77.34375 -134.828125 Z M 77.34375 -134.828125 "/></g></g></g></g></g></svg>